<svg width="336" height="122" viewBox="0 0 336 122" fill="none" xmlns="http://www.w3.org/2000/svg">
<path d="M60.0266 5.54545V23H56.8391L49.2454 12.0142H49.1175V23H45.4272V5.54545H48.6658L56.1999 16.5227H56.3533V5.54545H60.0266ZM68.9734 23.2557C67.6268 23.2557 66.4677 22.983 65.4961 22.4375C64.5302 21.8864 63.7859 21.108 63.2631 20.1023C62.7404 19.0909 62.479 17.8949 62.479 16.5142C62.479 15.1676 62.7404 13.9858 63.2631 12.9688C63.7859 11.9517 64.5217 11.1591 65.4705 10.5909C66.4251 10.0227 67.5444 9.73864 68.8285 9.73864C69.6921 9.73864 70.4961 9.87784 71.2404 10.1562C71.9904 10.429 72.6438 10.8409 73.2006 11.392C73.7631 11.9432 74.2006 12.6364 74.5131 13.4716C74.8256 14.3011 74.9819 15.2727 74.9819 16.3864V17.3835H63.9279V15.1335H71.5643C71.5643 14.6108 71.4506 14.1477 71.2234 13.7443C70.9961 13.3409 70.6808 13.0256 70.2773 12.7983C69.8796 12.5653 69.4165 12.4489 68.8881 12.4489C68.337 12.4489 67.8484 12.5767 67.4222 12.8324C67.0018 13.0824 66.6722 13.4205 66.4336 13.8466C66.195 14.267 66.0728 14.7358 66.0671 15.2528V17.392C66.0671 18.0398 66.1864 18.5994 66.4251 19.071C66.6694 19.5426 67.0131 19.9062 67.4563 20.1619C67.8995 20.4176 68.4251 20.5455 69.033 20.5455C69.4364 20.5455 69.8058 20.4886 70.141 20.375C70.4762 20.2614 70.7631 20.0909 71.0018 19.8636C71.2404 19.6364 71.4222 19.358 71.5472 19.0284L74.9052 19.25C74.7347 20.0568 74.3853 20.7614 73.8569 21.3636C73.3342 21.9602 72.658 22.4261 71.8285 22.7614C71.0046 23.0909 70.0529 23.2557 68.9734 23.2557ZM80.9819 15.4318V23H77.3512V9.90909H80.8114V12.2188H80.9648C81.2546 11.4574 81.7404 10.8551 82.4222 10.4119C83.104 9.96307 83.9308 9.73864 84.9023 9.73864C85.8114 9.73864 86.604 9.9375 87.2802 10.3352C87.9563 10.733 88.4819 11.3011 88.8569 12.0398C89.2319 12.7727 89.4194 13.6477 89.4194 14.6648V23H85.7887V15.3125C85.7944 14.5114 85.5898 13.8864 85.1751 13.4375C84.7603 12.983 84.1893 12.7557 83.462 12.7557C82.9734 12.7557 82.5415 12.8608 82.1665 13.071C81.7972 13.2812 81.5075 13.5881 81.2972 13.9915C81.0927 14.3892 80.9876 14.8693 80.9819 15.4318ZM95.9116 15.4318V23H92.2809V5.54545H95.8093V12.2188H95.9627C96.2582 11.446 96.7354 10.8409 97.3945 10.4034C98.0536 9.96023 98.8803 9.73864 99.8746 9.73864C100.784 9.73864 101.576 9.9375 102.252 10.3352C102.934 10.7273 103.463 11.2926 103.838 12.0312C104.218 12.7642 104.406 13.642 104.4 14.6648V23H100.77V15.3125C100.775 14.5057 100.571 13.8778 100.156 13.429C99.7468 12.9801 99.1729 12.7557 98.4343 12.7557C97.94 12.7557 97.5025 12.8608 97.1218 13.071C96.7468 13.2812 96.4513 13.5881 96.2354 13.9915C96.0252 14.3892 95.9173 14.8693 95.9116 15.4318ZM115.652 17.4261V9.90909H119.283V23H115.797V20.6222H115.661C115.365 21.3892 114.874 22.0057 114.186 22.4716C113.505 22.9375 112.672 23.1705 111.689 23.1705C110.814 23.1705 110.044 22.9716 109.38 22.5739C108.715 22.1761 108.195 21.6108 107.82 20.8778C107.451 20.1449 107.263 19.267 107.257 18.2443V9.90909H110.888V17.5966C110.894 18.3693 111.101 18.9801 111.51 19.429C111.919 19.8778 112.468 20.1023 113.155 20.1023C113.593 20.1023 114.002 20.0028 114.382 19.804C114.763 19.5994 115.07 19.2983 115.303 18.9006C115.542 18.5028 115.658 18.0114 115.652 17.4261ZM122.187 23V9.90909H125.647V12.2188H125.801C126.074 11.4517 126.528 10.8466 127.164 10.4034C127.801 9.96023 128.562 9.73864 129.449 9.73864C130.346 9.73864 131.11 9.96307 131.741 10.4119C132.372 10.8551 132.792 11.4574 133.002 12.2188H133.139C133.406 11.4688 133.889 10.8693 134.588 10.4205C135.292 9.96591 136.125 9.73864 137.085 9.73864C138.306 9.73864 139.298 10.1278 140.059 10.9062C140.826 11.679 141.21 12.7756 141.21 14.196V23H137.588V14.9119C137.588 14.1847 137.395 13.6392 137.008 13.2756C136.622 12.9119 136.139 12.7301 135.559 12.7301C134.9 12.7301 134.386 12.9403 134.017 13.3608C133.647 13.7756 133.463 14.3239 133.463 15.0057V23H129.943V14.8352C129.943 14.1932 129.758 13.6818 129.389 13.3011C129.025 12.9205 128.545 12.7301 127.949 12.7301C127.545 12.7301 127.181 12.8324 126.858 13.0369C126.539 13.2358 126.287 13.517 126.099 13.8807C125.912 14.2386 125.818 14.6591 125.818 15.142V23H122.187ZM147.811 23.2472C146.975 23.2472 146.231 23.1023 145.578 22.8125C144.924 22.517 144.407 22.0824 144.027 21.5085C143.652 20.929 143.464 20.2074 143.464 19.3438C143.464 18.6165 143.598 18.0057 143.865 17.5114C144.132 17.017 144.495 16.6193 144.956 16.3182C145.416 16.017 145.939 15.7898 146.524 15.6364C147.115 15.483 147.734 15.375 148.382 15.3125C149.143 15.233 149.757 15.1591 150.223 15.0909C150.689 15.017 151.027 14.9091 151.237 14.767C151.447 14.625 151.552 14.4148 151.552 14.1364V14.0852C151.552 13.5455 151.382 13.1278 151.041 12.8324C150.706 12.5369 150.228 12.3892 149.609 12.3892C148.956 12.3892 148.436 12.5341 148.049 12.8239C147.663 13.108 147.407 13.4659 147.282 13.8977L143.924 13.625C144.095 12.8295 144.43 12.142 144.93 11.5625C145.43 10.9773 146.075 10.5284 146.865 10.2159C147.66 9.89773 148.581 9.73864 149.626 9.73864C150.353 9.73864 151.049 9.82386 151.714 9.99432C152.385 10.1648 152.978 10.429 153.495 10.7869C154.018 11.1449 154.43 11.6051 154.731 12.1676C155.032 12.7244 155.183 13.392 155.183 14.1705V23H151.74V21.1847H151.637C151.427 21.5938 151.146 21.9545 150.794 22.267C150.441 22.5739 150.018 22.8153 149.524 22.9915C149.029 23.1619 148.458 23.2472 147.811 23.2472ZM148.85 20.7415C149.385 20.7415 149.856 20.6364 150.265 20.4261C150.674 20.2102 150.995 19.9205 151.228 19.5568C151.461 19.1932 151.578 18.7812 151.578 18.321V16.9318C151.464 17.0057 151.308 17.0739 151.109 17.1364C150.916 17.1932 150.697 17.2472 150.453 17.2983C150.208 17.3437 149.964 17.3864 149.72 17.4261C149.475 17.4602 149.254 17.4915 149.055 17.5199C148.629 17.5824 148.257 17.6818 147.939 17.8182C147.62 17.9545 147.373 18.1392 147.197 18.3722C147.021 18.5994 146.933 18.8835 146.933 19.2244C146.933 19.7188 147.112 20.0966 147.47 20.358C147.833 20.6136 148.294 20.7415 148.85 20.7415ZM163.554 23V9.90909H167.015V12.2188H167.168C167.441 11.4517 167.895 10.8466 168.532 10.4034C169.168 9.96023 169.929 9.73864 170.816 9.73864C171.713 9.73864 172.478 9.96307 173.108 10.4119C173.739 10.8551 174.159 11.4574 174.37 12.2188H174.506C174.773 11.4688 175.256 10.8693 175.955 10.4205C176.659 9.96591 177.492 9.73864 178.452 9.73864C179.674 9.73864 180.665 10.1278 181.426 10.9062C182.194 11.679 182.577 12.7756 182.577 14.196V23H178.955V14.9119C178.955 14.1847 178.762 13.6392 178.375 13.2756C177.989 12.9119 177.506 12.7301 176.926 12.7301C176.267 12.7301 175.753 12.9403 175.384 13.3608C175.015 13.7756 174.83 14.3239 174.83 15.0057V23H171.31V14.8352C171.31 14.1932 171.125 13.6818 170.756 13.3011C170.392 12.9205 169.912 12.7301 169.316 12.7301C168.912 12.7301 168.549 12.8324 168.225 13.0369C167.907 13.2358 167.654 13.517 167.466 13.8807C167.279 14.2386 167.185 14.6591 167.185 15.142V23H163.554ZM191.411 23.2557C190.064 23.2557 188.905 22.983 187.934 22.4375C186.968 21.8864 186.223 21.108 185.701 20.1023C185.178 19.0909 184.917 17.8949 184.917 16.5142C184.917 15.1676 185.178 13.9858 185.701 12.9688C186.223 11.9517 186.959 11.1591 187.908 10.5909C188.863 10.0227 189.982 9.73864 191.266 9.73864C192.13 9.73864 192.934 9.87784 193.678 10.1562C194.428 10.429 195.081 10.8409 195.638 11.392C196.201 11.9432 196.638 12.6364 196.951 13.4716C197.263 14.3011 197.419 15.2727 197.419 16.3864V17.3835H186.365V15.1335H194.002C194.002 14.6108 193.888 14.1477 193.661 13.7443C193.434 13.3409 193.118 13.0256 192.715 12.7983C192.317 12.5653 191.854 12.4489 191.326 12.4489C190.775 12.4489 190.286 12.5767 189.86 12.8324C189.439 13.0824 189.11 13.4205 188.871 13.8466C188.632 14.267 188.51 14.7358 188.505 15.2528V17.392C188.505 18.0398 188.624 18.5994 188.863 19.071C189.107 19.5426 189.451 19.9062 189.894 20.1619C190.337 20.4176 190.863 20.5455 191.471 20.5455C191.874 20.5455 192.243 20.4886 192.578 20.375C192.914 20.2614 193.201 20.0909 193.439 19.8636C193.678 19.6364 193.86 19.358 193.985 19.0284L197.343 19.25C197.172 20.0568 196.823 20.7614 196.294 21.3636C195.772 21.9602 195.096 22.4261 194.266 22.7614C193.442 23.0909 192.49 23.2557 191.411 23.2557ZM203.419 15.4318V23H199.789V9.90909H203.249V12.2188H203.402C203.692 11.4574 204.178 10.8551 204.86 10.4119C205.542 9.96307 206.368 9.73864 207.34 9.73864C208.249 9.73864 209.042 9.9375 209.718 10.3352C210.394 10.733 210.919 11.3011 211.294 12.0398C211.669 12.7727 211.857 13.6477 211.857 14.6648V23H208.226V15.3125C208.232 14.5114 208.027 13.8864 207.613 13.4375C207.198 12.983 206.627 12.7557 205.9 12.7557C205.411 12.7557 204.979 12.8608 204.604 13.071C204.235 13.2812 203.945 13.5881 203.735 13.9915C203.53 14.3892 203.425 14.8693 203.419 15.4318ZM225.61 13.642L222.287 13.8466C222.23 13.5625 222.108 13.3068 221.92 13.0795C221.733 12.8466 221.485 12.6619 221.179 12.5256C220.877 12.3835 220.517 12.3125 220.096 12.3125C219.534 12.3125 219.059 12.4318 218.673 12.6705C218.287 12.9034 218.093 13.2159 218.093 13.608C218.093 13.9205 218.218 14.1847 218.468 14.4006C218.718 14.6165 219.147 14.7898 219.755 14.9205L222.125 15.3977C223.397 15.6591 224.346 16.0795 224.971 16.6591C225.596 17.2386 225.909 18 225.909 18.9432C225.909 19.8011 225.656 20.554 225.15 21.2017C224.65 21.8494 223.963 22.3551 223.088 22.7188C222.218 23.0767 221.216 23.2557 220.079 23.2557C218.346 23.2557 216.966 22.8949 215.937 22.1733C214.914 21.446 214.315 20.4574 214.139 19.2074L217.71 19.0199C217.818 19.5483 218.079 19.9517 218.494 20.2301C218.909 20.5028 219.44 20.6392 220.088 20.6392C220.724 20.6392 221.235 20.517 221.622 20.2727C222.014 20.0227 222.213 19.7017 222.218 19.3097C222.213 18.9801 222.074 18.7102 221.801 18.5C221.528 18.2841 221.108 18.1193 220.539 18.0057L218.272 17.554C216.994 17.2983 216.042 16.8551 215.417 16.2244C214.798 15.5937 214.488 14.7898 214.488 13.8125C214.488 12.9716 214.716 12.2472 215.17 11.6392C215.63 11.0312 216.275 10.5625 217.105 10.233C217.94 9.90341 218.917 9.73864 220.037 9.73864C221.69 9.73864 222.991 10.0881 223.94 10.7869C224.895 11.4858 225.451 12.4375 225.61 13.642ZM231.928 23.2472C231.093 23.2472 230.348 23.1023 229.695 22.8125C229.042 22.517 228.525 22.0824 228.144 21.5085C227.769 20.929 227.581 20.2074 227.581 19.3438C227.581 18.6165 227.715 18.0057 227.982 17.5114C228.249 17.017 228.613 16.6193 229.073 16.3182C229.533 16.017 230.056 15.7898 230.641 15.6364C231.232 15.483 231.851 15.375 232.499 15.3125C233.26 15.233 233.874 15.1591 234.34 15.0909C234.806 15.017 235.144 14.9091 235.354 14.767C235.564 14.625 235.669 14.4148 235.669 14.1364V14.0852C235.669 13.5455 235.499 13.1278 235.158 12.8324C234.823 12.5369 234.346 12.3892 233.726 12.3892C233.073 12.3892 232.553 12.5341 232.167 12.8239C231.78 13.108 231.525 13.4659 231.4 13.8977L228.042 13.625C228.212 12.8295 228.547 12.142 229.047 11.5625C229.547 10.9773 230.192 10.5284 230.982 10.2159C231.777 9.89773 232.698 9.73864 233.743 9.73864C234.471 9.73864 235.167 9.82386 235.831 9.99432C236.502 10.1648 237.096 10.429 237.613 10.7869C238.135 11.1449 238.547 11.6051 238.848 12.1676C239.15 12.7244 239.3 13.392 239.3 14.1705V23H235.857V21.1847H235.755C235.544 21.5938 235.263 21.9545 234.911 22.267C234.559 22.5739 234.135 22.8153 233.641 22.9915C233.147 23.1619 232.576 23.2472 231.928 23.2472ZM232.968 20.7415C233.502 20.7415 233.973 20.6364 234.382 20.4261C234.792 20.2102 235.113 19.9205 235.346 19.5568C235.578 19.1932 235.695 18.7812 235.695 18.321V16.9318C235.581 17.0057 235.425 17.0739 235.226 17.1364C235.033 17.1932 234.814 17.2472 234.57 17.2983C234.326 17.3437 234.081 17.3864 233.837 17.4261C233.593 17.4602 233.371 17.4915 233.172 17.5199C232.746 17.5824 232.374 17.6818 232.056 17.8182C231.738 17.9545 231.49 18.1392 231.314 18.3722C231.138 18.5994 231.05 18.8835 231.05 19.2244C231.05 19.7188 231.229 20.0966 231.587 20.358C231.951 20.6136 232.411 20.7415 232.968 20.7415ZM248.015 28.1818C246.838 28.1818 245.83 28.0199 244.989 27.696C244.154 27.3778 243.489 26.9432 242.995 26.392C242.5 25.8409 242.179 25.2216 242.032 24.5341L245.39 24.0824C245.492 24.3438 245.654 24.5881 245.875 24.8153C246.097 25.0426 246.39 25.2244 246.753 25.3608C247.123 25.5028 247.571 25.5739 248.1 25.5739C248.89 25.5739 249.54 25.3807 250.051 24.9943C250.569 24.6136 250.827 23.9744 250.827 23.0767V20.6818H250.674C250.515 21.0455 250.276 21.3892 249.958 21.7131C249.64 22.0369 249.23 22.3011 248.73 22.5057C248.23 22.7102 247.634 22.8125 246.941 22.8125C245.958 22.8125 245.063 22.5852 244.256 22.1307C243.455 21.6705 242.816 20.9687 242.338 20.0256C241.867 19.0767 241.631 17.8778 241.631 16.429C241.631 14.946 241.873 13.7074 242.355 12.7131C242.838 11.7187 243.48 10.9744 244.282 10.4801C245.088 9.9858 245.972 9.73864 246.932 9.73864C247.665 9.73864 248.279 9.86364 248.773 10.1136C249.267 10.358 249.665 10.6648 249.966 11.0341C250.273 11.3977 250.509 11.7557 250.674 12.108H250.81V9.90909H254.415V23.1278C254.415 24.2415 254.142 25.1733 253.597 25.9233C253.051 26.6733 252.296 27.2358 251.33 27.6108C250.37 27.9915 249.265 28.1818 248.015 28.1818ZM248.091 20.0852C248.676 20.0852 249.171 19.9403 249.574 19.6506C249.983 19.3551 250.296 18.9347 250.512 18.3892C250.733 17.8381 250.844 17.179 250.844 16.4119C250.844 15.6449 250.736 14.9801 250.52 14.4176C250.304 13.8494 249.992 13.4091 249.583 13.0966C249.174 12.7841 248.676 12.6278 248.091 12.6278C247.495 12.6278 246.992 12.7898 246.583 13.1136C246.174 13.4318 245.864 13.875 245.654 14.4432C245.444 15.0114 245.338 15.6676 245.338 16.4119C245.338 17.1676 245.444 17.821 245.654 18.3722C245.87 18.9176 246.179 19.3409 246.583 19.642C246.992 19.9375 247.495 20.0852 248.091 20.0852ZM263.27 23.2557C261.924 23.2557 260.765 22.983 259.793 22.4375C258.827 21.8864 258.083 21.108 257.56 20.1023C257.037 19.0909 256.776 17.8949 256.776 16.5142C256.776 15.1676 257.037 13.9858 257.56 12.9688C258.083 11.9517 258.819 11.1591 259.767 10.5909C260.722 10.0227 261.841 9.73864 263.125 9.73864C263.989 9.73864 264.793 9.87784 265.537 10.1562C266.287 10.429 266.941 10.8409 267.498 11.392C268.06 11.9432 268.498 12.6364 268.81 13.4716C269.123 14.3011 269.279 15.2727 269.279 16.3864V17.3835H258.225V15.1335H265.861C265.861 14.6108 265.748 14.1477 265.52 13.7443C265.293 13.3409 264.978 13.0256 264.574 12.7983C264.176 12.5653 263.713 12.4489 263.185 12.4489C262.634 12.4489 262.145 12.5767 261.719 12.8324C261.299 13.0824 260.969 13.4205 260.73 13.8466C260.492 14.267 260.37 14.7358 260.364 15.2528V17.392C260.364 18.0398 260.483 18.5994 260.722 19.071C260.966 19.5426 261.31 19.9062 261.753 20.1619C262.196 20.4176 262.722 20.5455 263.33 20.5455C263.733 20.5455 264.103 20.4886 264.438 20.375C264.773 20.2614 265.06 20.0909 265.299 19.8636C265.537 19.6364 265.719 19.358 265.844 19.0284L269.202 19.25C269.032 20.0568 268.682 20.7614 268.154 21.3636C267.631 21.9602 266.955 22.4261 266.125 22.7614C265.301 23.0909 264.35 23.2557 263.27 23.2557ZM271.648 23V9.90909H275.108V12.2188H275.262C275.534 11.4517 275.989 10.8466 276.625 10.4034C277.262 9.96023 278.023 9.73864 278.909 9.73864C279.807 9.73864 280.571 9.96307 281.202 10.4119C281.833 10.8551 282.253 11.4574 282.463 12.2188H282.6C282.867 11.4688 283.35 10.8693 284.049 10.4205C284.753 9.96591 285.586 9.73864 286.546 9.73864C287.767 9.73864 288.759 10.1278 289.52 10.9062C290.287 11.679 290.671 12.7756 290.671 14.196V23H287.049V14.9119C287.049 14.1847 286.855 13.6392 286.469 13.2756C286.083 12.9119 285.6 12.7301 285.02 12.7301C284.361 12.7301 283.847 12.9403 283.478 13.3608C283.108 13.7756 282.924 14.3239 282.924 15.0057V23H279.404V14.8352C279.404 14.1932 279.219 13.6818 278.85 13.3011C278.486 12.9205 278.006 12.7301 277.409 12.7301C277.006 12.7301 276.642 12.8324 276.319 13.0369C276 13.2358 275.748 13.517 275.56 13.8807C275.373 14.2386 275.279 14.6591 275.279 15.142V23H271.648ZM107.973 52.2557C106.627 52.2557 105.468 51.983 104.496 51.4375C103.53 50.8864 102.786 50.108 102.263 49.1023C101.74 48.0909 101.479 46.8949 101.479 45.5142C101.479 44.1676 101.74 42.9858 102.263 41.9688C102.786 40.9517 103.522 40.1591 104.471 39.5909C105.425 39.0227 106.544 38.7386 107.828 38.7386C108.692 38.7386 109.496 38.8778 110.24 39.1562C110.99 39.429 111.644 39.8409 112.201 40.392C112.763 40.9432 113.201 41.6364 113.513 42.4716C113.826 43.3011 113.982 44.2727 113.982 45.3864V46.3835H102.928V44.1335H110.564C110.564 43.6108 110.451 43.1477 110.223 42.7443C109.996 42.3409 109.681 42.0256 109.277 41.7983C108.88 41.5653 108.417 41.4489 107.888 41.4489C107.337 41.4489 106.848 41.5767 106.422 41.8324C106.002 42.0824 105.672 42.4205 105.434 42.8466C105.195 43.267 105.073 43.7358 105.067 44.2528V46.392C105.067 47.0398 105.186 47.5994 105.425 48.071C105.669 48.5426 106.013 48.9062 106.456 49.1619C106.9 49.4176 107.425 49.5455 108.033 49.5455C108.436 49.5455 108.806 49.4886 109.141 49.375C109.476 49.2614 109.763 49.0909 110.002 48.8636C110.24 48.6364 110.422 48.358 110.547 48.0284L113.905 48.25C113.735 49.0568 113.385 49.7614 112.857 50.3636C112.334 50.9602 111.658 51.4261 110.828 51.7614C110.005 52.0909 109.053 52.2557 107.973 52.2557ZM119.982 44.4318V52H116.351V38.9091H119.811V41.2188H119.965C120.255 40.4574 120.74 39.8551 121.422 39.4119C122.104 38.9631 122.931 38.7386 123.902 38.7386C124.811 38.7386 125.604 38.9375 126.28 39.3352C126.956 39.733 127.482 40.3011 127.857 41.0398C128.232 41.7727 128.419 42.6477 128.419 43.6648V52H124.789V44.3125C124.794 43.5114 124.59 42.8864 124.175 42.4375C123.76 41.983 123.189 41.7557 122.462 41.7557C121.973 41.7557 121.542 41.8608 121.167 42.071C120.797 42.2812 120.507 42.5881 120.297 42.9915C120.093 43.3892 119.988 43.8693 119.982 44.4318ZM137.196 52.2557C135.855 52.2557 134.701 51.9716 133.735 51.4034C132.775 50.8295 132.037 50.0341 131.52 49.017C131.008 48 130.752 46.8295 130.752 45.5057C130.752 44.1648 131.011 42.9886 131.528 41.9773C132.051 40.9602 132.792 40.1676 133.752 39.5994C134.713 39.0256 135.855 38.7386 137.179 38.7386C138.321 38.7386 139.321 38.946 140.179 39.3608C141.037 39.7756 141.716 40.358 142.216 41.108C142.716 41.858 142.991 42.7386 143.042 43.75H139.616C139.52 43.0966 139.264 42.571 138.849 42.1733C138.44 41.7699 137.903 41.5682 137.238 41.5682C136.676 41.5682 136.184 41.7216 135.764 42.0284C135.349 42.3295 135.025 42.7699 134.792 43.3494C134.559 43.929 134.443 44.6307 134.443 45.4545C134.443 46.2898 134.556 47 134.784 47.5852C135.017 48.1705 135.343 48.6165 135.764 48.9233C136.184 49.2301 136.676 49.3835 137.238 49.3835C137.653 49.3835 138.025 49.2983 138.355 49.1278C138.69 48.9574 138.966 48.7102 139.181 48.3864C139.403 48.0568 139.548 47.6619 139.616 47.2017H143.042C142.985 48.2017 142.713 49.0824 142.224 49.8438C141.741 50.5994 141.074 51.1903 140.221 51.6165C139.369 52.0426 138.36 52.2557 137.196 52.2557ZM151.282 52.2557C149.958 52.2557 148.813 51.9744 147.847 51.4119C146.887 50.8437 146.145 50.054 145.623 49.0426C145.1 48.0256 144.838 46.8466 144.838 45.5057C144.838 44.1534 145.1 42.9716 145.623 41.9602C146.145 40.9432 146.887 40.1534 147.847 39.5909C148.813 39.0227 149.958 38.7386 151.282 38.7386C152.605 38.7386 153.748 39.0227 154.708 39.5909C155.674 40.1534 156.418 40.9432 156.941 41.9602C157.463 42.9716 157.725 44.1534 157.725 45.5057C157.725 46.8466 157.463 48.0256 156.941 49.0426C156.418 50.054 155.674 50.8437 154.708 51.4119C153.748 51.9744 152.605 52.2557 151.282 52.2557ZM151.299 49.4432C151.901 49.4432 152.404 49.2727 152.807 48.9318C153.211 48.5852 153.515 48.1136 153.719 47.517C153.929 46.9205 154.034 46.2415 154.034 45.4801C154.034 44.7188 153.929 44.0398 153.719 43.4432C153.515 42.8466 153.211 42.375 152.807 42.0284C152.404 41.6818 151.901 41.5085 151.299 41.5085C150.691 41.5085 150.179 41.6818 149.765 42.0284C149.355 42.375 149.046 42.8466 148.836 43.4432C148.631 44.0398 148.529 44.7188 148.529 45.4801C148.529 46.2415 148.631 46.9205 148.836 47.517C149.046 48.1136 149.355 48.5852 149.765 48.9318C150.179 49.2727 150.691 49.4432 151.299 49.4432ZM163.716 44.4318V52H160.086V38.9091H163.546V41.2188H163.699C163.989 40.4574 164.475 39.8551 165.157 39.4119C165.838 38.9631 166.665 38.7386 167.637 38.7386C168.546 38.7386 169.338 38.9375 170.015 39.3352C170.691 39.733 171.216 40.3011 171.591 41.0398C171.966 41.7727 172.154 42.6477 172.154 43.6648V52H168.523V44.3125C168.529 43.5114 168.324 42.8864 167.909 42.4375C167.495 41.983 166.924 41.7557 166.196 41.7557C165.708 41.7557 165.276 41.8608 164.901 42.071C164.532 42.2812 164.242 42.5881 164.032 42.9915C163.827 43.3892 163.722 43.8693 163.716 44.4318ZM181.978 38.9091V41.6364H174.095V38.9091H181.978ZM175.885 35.7727H179.515V47.9773C179.515 48.3125 179.566 48.5739 179.669 48.7614C179.771 48.9432 179.913 49.071 180.095 49.1449C180.282 49.2187 180.498 49.2557 180.743 49.2557C180.913 49.2557 181.083 49.2415 181.254 49.2131C181.424 49.179 181.555 49.1534 181.646 49.1364L182.217 51.8381C182.035 51.8949 181.779 51.9602 181.45 52.0341C181.12 52.1136 180.72 52.1619 180.248 52.179C179.373 52.2131 178.606 52.0966 177.947 51.8295C177.294 51.5625 176.785 51.1477 176.422 50.5852C176.058 50.0227 175.879 49.3125 175.885 48.4545V35.7727ZM184.343 52V38.9091H187.863V41.1932H188C188.238 40.3807 188.639 39.767 189.201 39.3523C189.764 38.9318 190.412 38.7216 191.145 38.7216C191.326 38.7216 191.522 38.733 191.733 38.7557C191.943 38.7784 192.127 38.8097 192.287 38.8494V42.071C192.116 42.0199 191.88 41.9744 191.579 41.9347C191.278 41.8949 191.002 41.875 190.752 41.875C190.218 41.875 189.741 41.9915 189.321 42.2244C188.906 42.4517 188.576 42.7699 188.332 43.179C188.093 43.5881 187.974 44.0597 187.974 44.5938V52H184.343ZM197.522 52.2472C196.686 52.2472 195.942 52.1023 195.289 51.8125C194.635 51.517 194.118 51.0824 193.738 50.5085C193.363 49.929 193.175 49.2074 193.175 48.3438C193.175 47.6165 193.309 47.0057 193.576 46.5114C193.843 46.017 194.206 45.6193 194.667 45.3182C195.127 45.017 195.65 44.7898 196.235 44.6364C196.826 44.483 197.445 44.375 198.093 44.3125C198.854 44.233 199.468 44.1591 199.934 44.0909C200.4 44.017 200.738 43.9091 200.948 43.767C201.158 43.625 201.263 43.4148 201.263 43.1364V43.0852C201.263 42.5455 201.093 42.1278 200.752 41.8324C200.417 41.5369 199.939 41.3892 199.32 41.3892C198.667 41.3892 198.147 41.5341 197.76 41.8239C197.374 42.108 197.118 42.4659 196.993 42.8977L193.635 42.625C193.806 41.8295 194.141 41.142 194.641 40.5625C195.141 39.9773 195.786 39.5284 196.576 39.2159C197.371 38.8977 198.292 38.7386 199.337 38.7386C200.064 38.7386 200.76 38.8239 201.425 38.9943C202.096 39.1648 202.689 39.429 203.206 39.7869C203.729 40.1449 204.141 40.6051 204.442 41.1676C204.743 41.7244 204.894 42.392 204.894 43.1705V52H201.451V50.1847H201.348C201.138 50.5938 200.857 50.9545 200.505 51.267C200.152 51.5739 199.729 51.8153 199.235 51.9915C198.74 52.1619 198.169 52.2472 197.522 52.2472ZM198.561 49.7415C199.096 49.7415 199.567 49.6364 199.976 49.4261C200.385 49.2102 200.706 48.9205 200.939 48.5568C201.172 48.1932 201.289 47.7812 201.289 47.321V45.9318C201.175 46.0057 201.019 46.0739 200.82 46.1364C200.627 46.1932 200.408 46.2472 200.164 46.2983C199.919 46.3437 199.675 46.3864 199.431 46.4261C199.186 46.4602 198.965 46.4915 198.766 46.5199C198.34 46.5824 197.968 46.6818 197.65 46.8182C197.331 46.9545 197.084 47.1392 196.908 47.3722C196.732 47.5994 196.644 47.8835 196.644 48.2244C196.644 48.7188 196.823 49.0966 197.181 49.358C197.544 49.6136 198.005 49.7415 198.561 49.7415ZM212.534 52.2131C211.54 52.2131 210.64 51.9574 209.833 51.446C209.032 50.929 208.395 50.1705 207.924 49.1705C207.458 48.1648 207.225 46.9318 207.225 45.4716C207.225 43.9716 207.466 42.7244 207.949 41.7301C208.432 40.7301 209.074 39.983 209.875 39.4886C210.682 38.9886 211.566 38.7386 212.526 38.7386C213.259 38.7386 213.87 38.8636 214.358 39.1136C214.853 39.358 215.25 39.6648 215.551 40.0341C215.858 40.3977 216.091 40.7557 216.25 41.108H216.361V34.5455H219.983V52H216.404V49.9034H216.25C216.08 50.267 215.838 50.6278 215.526 50.9858C215.219 51.3381 214.819 51.6307 214.324 51.8636C213.836 52.0966 213.239 52.2131 212.534 52.2131ZM213.685 49.3239C214.27 49.3239 214.765 49.1648 215.168 48.8466C215.577 48.5227 215.89 48.071 216.105 47.4915C216.327 46.9119 216.438 46.233 216.438 45.4545C216.438 44.6761 216.33 44 216.114 43.4261C215.898 42.8523 215.586 42.4091 215.176 42.0966C214.767 41.7841 214.27 41.6278 213.685 41.6278C213.088 41.6278 212.586 41.7898 212.176 42.1136C211.767 42.4375 211.458 42.8864 211.248 43.4602C211.037 44.0341 210.932 44.6989 210.932 45.4545C210.932 46.2159 211.037 46.8892 211.248 47.4744C211.463 48.054 211.773 48.5085 212.176 48.8381C212.586 49.1619 213.088 49.3239 213.685 49.3239ZM226.701 52.2472C225.866 52.2472 225.122 52.1023 224.468 51.8125C223.815 51.517 223.298 51.0824 222.917 50.5085C222.542 49.929 222.355 49.2074 222.355 48.3438C222.355 47.6165 222.488 47.0057 222.755 46.5114C223.022 46.017 223.386 45.6193 223.846 45.3182C224.306 45.017 224.829 44.7898 225.414 44.6364C226.005 44.483 226.625 44.375 227.272 44.3125C228.034 44.233 228.647 44.1591 229.113 44.0909C229.579 44.017 229.917 43.9091 230.127 43.767C230.338 43.625 230.443 43.4148 230.443 43.1364V43.0852C230.443 42.5455 230.272 42.1278 229.931 41.8324C229.596 41.5369 229.119 41.3892 228.5 41.3892C227.846 41.3892 227.326 41.5341 226.94 41.8239C226.554 42.108 226.298 42.4659 226.173 42.8977L222.815 42.625C222.985 41.8295 223.321 41.142 223.821 40.5625C224.321 39.9773 224.966 39.5284 225.755 39.2159C226.551 38.8977 227.471 38.7386 228.517 38.7386C229.244 38.7386 229.94 38.8239 230.605 38.9943C231.275 39.1648 231.869 39.429 232.386 39.7869C232.909 40.1449 233.321 40.6051 233.622 41.1676C233.923 41.7244 234.074 42.392 234.074 43.1705V52H230.63V50.1847H230.528C230.318 50.5938 230.037 50.9545 229.684 51.267C229.332 51.5739 228.909 51.8153 228.414 51.9915C227.92 52.1619 227.349 52.2472 226.701 52.2472ZM227.741 49.7415C228.275 49.7415 228.747 49.6364 229.156 49.4261C229.565 49.2102 229.886 48.9205 230.119 48.5568C230.352 48.1932 230.468 47.7812 230.468 47.321V45.9318C230.355 46.0057 230.199 46.0739 230 46.1364C229.806 46.1932 229.588 46.2472 229.343 46.2983C229.099 46.3437 228.855 46.3864 228.61 46.4261C228.366 46.4602 228.145 46.4915 227.946 46.5199C227.52 46.5824 227.147 46.6818 226.829 46.8182C226.511 46.9545 226.264 47.1392 226.088 47.3722C225.912 47.5994 225.824 47.8835 225.824 48.2244C225.824 48.7188 226.002 49.0966 226.36 49.358C226.724 49.6136 227.184 49.7415 227.741 49.7415Z" fill="#343A40"/>
<path d="M51.6172 92H48.0263V80.3636H51.7763C52.9051 80.3636 53.871 80.5966 54.674 81.0625C55.477 81.5246 56.0926 82.1894 56.5206 83.0568C56.9486 83.9205 57.1626 84.9545 57.1626 86.1591C57.1626 87.3712 56.9467 88.4148 56.5149 89.2898C56.0831 90.161 55.4543 90.8314 54.6286 91.3011C53.8028 91.767 52.799 92 51.6172 92ZM49.4354 90.75H51.5263C52.4884 90.75 53.2857 90.5644 53.9183 90.1932C54.5509 89.822 55.0225 89.2936 55.3331 88.608C55.6437 87.9223 55.799 87.1061 55.799 86.1591C55.799 85.2197 55.6456 84.411 55.3388 83.733C55.032 83.0511 54.5736 82.5284 53.9638 82.1648C53.3539 81.7973 52.5945 81.6136 51.6854 81.6136H49.4354V90.75ZM59.3445 92V83.2727H60.6854V92H59.3445ZM60.0263 81.8182C59.7649 81.8182 59.5395 81.7292 59.3501 81.5511C59.1645 81.3731 59.0717 81.1591 59.0717 80.9091C59.0717 80.6591 59.1645 80.4451 59.3501 80.267C59.5395 80.089 59.7649 80 60.0263 80C60.2876 80 60.5111 80.089 60.6967 80.267C60.8861 80.4451 60.9808 80.6591 60.9808 80.9091C60.9808 81.1591 60.8861 81.3731 60.6967 81.5511C60.5111 81.7292 60.2876 81.8182 60.0263 81.8182ZM66.6641 95.4545C66.0163 95.4545 65.4595 95.3712 64.9936 95.2045C64.5277 95.0417 64.1394 94.8258 63.8288 94.5568C63.522 94.2917 63.2777 94.0076 63.0959 93.7045L64.1641 92.9545C64.2853 93.1136 64.4387 93.2955 64.6243 93.5C64.8099 93.7083 65.0637 93.8883 65.3857 94.0398C65.7114 94.1951 66.1375 94.2727 66.6641 94.2727C67.3686 94.2727 67.95 94.1023 68.4084 93.7614C68.8667 93.4205 69.0959 92.8864 69.0959 92.1591V90.3864H68.9822C68.8838 90.5455 68.7436 90.7424 68.5618 90.9773C68.3838 91.2083 68.1262 91.4148 67.7891 91.5966C67.4557 91.7746 67.005 91.8636 66.4368 91.8636C65.7322 91.8636 65.0997 91.697 64.5391 91.3636C63.9822 91.0303 63.541 90.5455 63.2152 89.9091C62.8932 89.2727 62.7322 88.5 62.7322 87.5909C62.7322 86.697 62.8894 85.9186 63.2038 85.2557C63.5182 84.589 63.9557 84.0739 64.5163 83.7102C65.0769 83.3428 65.7247 83.1591 66.4595 83.1591C67.0277 83.1591 67.4785 83.2538 67.8118 83.4432C68.1489 83.6288 68.4065 83.8409 68.5845 84.0795C68.7663 84.3144 68.9065 84.5076 69.005 84.6591H69.1413V83.2727H70.4368V92.25C70.4368 93 70.2663 93.6098 69.9254 94.0795C69.5883 94.553 69.1338 94.8996 68.5618 95.1193C67.9936 95.3428 67.361 95.4545 66.6641 95.4545ZM66.6186 90.6591C67.1565 90.6591 67.611 90.536 67.9822 90.2898C68.3535 90.0436 68.6357 89.6894 68.8288 89.2273C69.022 88.7652 69.1186 88.2121 69.1186 87.5682C69.1186 86.9394 69.0239 86.3845 68.8345 85.9034C68.6451 85.4223 68.3648 85.0455 67.9936 84.7727C67.6224 84.5 67.1641 84.3636 66.6186 84.3636C66.0504 84.3636 65.5769 84.5076 65.1982 84.7955C64.8232 85.0833 64.541 85.4697 64.3516 85.9545C64.166 86.4394 64.0732 86.9773 64.0732 87.5682C64.0732 88.1742 64.1679 88.7102 64.3572 89.1761C64.5504 89.6383 64.8345 90.0019 65.2095 90.267C65.5883 90.5284 66.058 90.6591 66.6186 90.6591ZM72.8913 92V83.2727H74.2322V92H72.8913ZM73.5732 81.8182C73.3118 81.8182 73.0864 81.7292 72.897 81.5511C72.7114 81.3731 72.6186 81.1591 72.6186 80.9091C72.6186 80.6591 72.7114 80.4451 72.897 80.267C73.0864 80.089 73.3118 80 73.5732 80C73.8345 80 74.058 80.089 74.2436 80.267C74.433 80.4451 74.5277 80.6591 74.5277 80.9091C74.5277 81.1591 74.433 81.3731 74.2436 81.5511C74.058 81.7292 73.8345 81.8182 73.5732 81.8182ZM80.4837 83.2727V84.4091H75.9609V83.2727H80.4837ZM77.2791 81.1818H78.62V89.5C78.62 89.8788 78.675 90.1629 78.7848 90.3523C78.8984 90.5379 79.0424 90.6629 79.2166 90.7273C79.3946 90.7879 79.5821 90.8182 79.7791 90.8182C79.9268 90.8182 80.0481 90.8106 80.1428 90.7955C80.2375 90.7765 80.3132 90.7614 80.37 90.75L80.6428 91.9545C80.5518 91.9886 80.425 92.0227 80.2621 92.0568C80.0992 92.0947 79.8928 92.1136 79.6428 92.1136C79.264 92.1136 78.8928 92.0322 78.5291 91.8693C78.1693 91.7064 77.87 91.4583 77.6314 91.125C77.3965 90.7917 77.2791 90.3712 77.2791 89.8636V81.1818ZM86.0661 92.1818C85.2251 92.1818 84.4998 91.9962 83.8899 91.625C83.2839 91.25 82.8161 90.7273 82.4865 90.0568C82.1607 89.3826 81.9979 88.5985 81.9979 87.7045C81.9979 86.8106 82.1607 86.0227 82.4865 85.3409C82.8161 84.6553 83.2744 84.1212 83.8615 83.7386C84.4524 83.3523 85.1418 83.1591 85.9297 83.1591C86.3842 83.1591 86.8331 83.2348 87.2763 83.3864C87.7195 83.5379 88.1229 83.7841 88.4865 84.125C88.8501 84.4621 89.1399 84.9091 89.3558 85.4659C89.5717 86.0227 89.6797 86.7083 89.6797 87.5227V88.0909H82.9524V86.9318H88.3161C88.3161 86.4394 88.2176 86 88.0206 85.6136C87.8274 85.2273 87.5509 84.9223 87.1911 84.6989C86.835 84.4754 86.4145 84.3636 85.9297 84.3636C85.3956 84.3636 84.9335 84.4962 84.5433 84.7614C84.157 85.0227 83.8596 85.3636 83.6513 85.7841C83.4429 86.2045 83.3388 86.6553 83.3388 87.1364V87.9091C83.3388 88.5682 83.4524 89.1269 83.6797 89.5852C83.9107 90.0398 84.2308 90.3864 84.6399 90.625C85.049 90.8598 85.5244 90.9773 86.0661 90.9773C86.4183 90.9773 86.7365 90.928 87.0206 90.8295C87.3085 90.7273 87.5566 90.5758 87.7649 90.375C87.9732 90.1705 88.1342 89.9167 88.2479 89.6136L89.5433 89.9773C89.407 90.4167 89.1778 90.803 88.8558 91.1364C88.5339 91.4659 88.1361 91.7235 87.6626 91.9091C87.1892 92.0909 86.657 92.1818 86.0661 92.1818ZM101.719 88.4318V83.2727H103.06V92H101.719V90.5227H101.629C101.424 90.9659 101.106 91.3428 100.674 91.6534C100.242 91.9602 99.6967 92.1136 99.0376 92.1136C98.4922 92.1136 98.0073 91.9943 97.5831 91.7557C97.1589 91.5133 96.8255 91.1496 96.5831 90.6648C96.3407 90.1761 96.2195 89.5606 96.2195 88.8182V83.2727H97.5604V88.7273C97.5604 89.3636 97.7384 89.8712 98.0945 90.25C98.4543 90.6288 98.9126 90.8182 99.4695 90.8182C99.8028 90.8182 100.142 90.733 100.487 90.5625C100.835 90.392 101.127 90.1307 101.362 89.7784C101.6 89.4261 101.719 88.9773 101.719 88.4318ZM105.516 92V83.2727H106.812V84.6364H106.925C107.107 84.1705 107.401 83.8087 107.806 83.5511C108.211 83.2898 108.698 83.1591 109.266 83.1591C109.842 83.1591 110.321 83.2898 110.704 83.5511C111.09 83.8087 111.391 84.1705 111.607 84.6364H111.698C111.922 84.1856 112.257 83.8277 112.704 83.5625C113.151 83.2936 113.687 83.1591 114.312 83.1591C115.092 83.1591 115.73 83.4034 116.227 83.892C116.723 84.3769 116.971 85.1326 116.971 86.1591V92H115.63V86.1591C115.63 85.5152 115.454 85.0549 115.102 84.7784C114.749 84.5019 114.335 84.3636 113.857 84.3636C113.244 84.3636 112.768 84.5492 112.431 84.9205C112.094 85.2879 111.925 85.7538 111.925 86.3182V92H110.562V86.0227C110.562 85.5265 110.401 85.1269 110.079 84.8239C109.757 84.517 109.342 84.3636 108.835 84.3636C108.486 84.3636 108.16 84.4564 107.857 84.642C107.558 84.8277 107.316 85.0852 107.13 85.4148C106.948 85.7405 106.857 86.1174 106.857 86.5455V92H105.516ZM127.718 83.2727V84.4091H123.195V83.2727H127.718ZM124.513 81.1818H125.854V89.5C125.854 89.8788 125.909 90.1629 126.019 90.3523C126.133 90.5379 126.277 90.6629 126.451 90.7273C126.629 90.7879 126.817 90.8182 127.013 90.8182C127.161 90.8182 127.282 90.8106 127.377 90.7955C127.472 90.7765 127.548 90.7614 127.604 90.75L127.877 91.9545C127.786 91.9886 127.659 92.0227 127.496 92.0568C127.334 92.0947 127.127 92.1136 126.877 92.1136C126.498 92.1136 126.127 92.0322 125.763 91.8693C125.404 91.7064 125.104 91.4583 124.866 91.125C124.631 90.7917 124.513 90.3712 124.513 89.8636V81.1818ZM133.3 92.1818C132.46 92.1818 131.734 91.9962 131.124 91.625C130.518 91.25 130.05 90.7273 129.721 90.0568C129.395 89.3826 129.232 88.5985 129.232 87.7045C129.232 86.8106 129.395 86.0227 129.721 85.3409C130.05 84.6553 130.509 84.1212 131.096 83.7386C131.687 83.3523 132.376 83.1591 133.164 83.1591C133.619 83.1591 134.067 83.2348 134.511 83.3864C134.954 83.5379 135.357 83.7841 135.721 84.125C136.085 84.4621 136.374 84.9091 136.59 85.4659C136.806 86.0227 136.914 86.7083 136.914 87.5227V88.0909H130.187V86.9318H135.55C135.55 86.4394 135.452 86 135.255 85.6136C135.062 85.2273 134.785 84.9223 134.425 84.6989C134.069 84.4754 133.649 84.3636 133.164 84.3636C132.63 84.3636 132.168 84.4962 131.778 84.7614C131.391 85.0227 131.094 85.3636 130.886 85.7841C130.677 86.2045 130.573 86.6553 130.573 87.1364V87.9091C130.573 88.5682 130.687 89.1269 130.914 89.5852C131.145 90.0398 131.465 90.3864 131.874 90.625C132.283 90.8598 132.759 90.9773 133.3 90.9773C133.653 90.9773 133.971 90.928 134.255 90.8295C134.543 90.7273 134.791 90.5758 134.999 90.375C135.208 90.1705 135.369 89.9167 135.482 89.6136L136.778 89.9773C136.641 90.4167 136.412 90.803 136.09 91.1364C135.768 91.4659 135.371 91.7235 134.897 91.9091C134.424 92.0909 133.891 92.1818 133.3 92.1818ZM139.719 83.2727L141.81 86.8409L143.901 83.2727H145.447L142.629 87.6364L145.447 92H143.901L141.81 88.6136L139.719 92H138.174L140.947 87.6364L138.174 83.2727H139.719ZM151.156 83.2727V84.4091H146.633V83.2727H151.156ZM147.951 81.1818H149.292V89.5C149.292 89.8788 149.347 90.1629 149.457 90.3523C149.57 90.5379 149.714 90.6629 149.888 90.7273C150.067 90.7879 150.254 90.8182 150.451 90.8182C150.599 90.8182 150.72 90.8106 150.815 90.7955C150.909 90.7765 150.985 90.7614 151.042 90.75L151.315 91.9545C151.224 91.9886 151.097 92.0227 150.934 92.0568C150.771 92.0947 150.565 92.1136 150.315 92.1136C149.936 92.1136 149.565 92.0322 149.201 91.8693C148.841 91.7064 148.542 91.4583 148.303 91.125C148.068 90.7917 147.951 90.3712 147.951 89.8636V81.1818ZM156.624 92.1818C155.836 92.1818 155.145 91.9943 154.55 91.6193C153.96 91.2443 153.497 90.7197 153.164 90.0455C152.835 89.3712 152.67 88.5833 152.67 87.6818C152.67 86.7727 152.835 85.9792 153.164 85.3011C153.497 84.6231 153.96 84.0966 154.55 83.7216C155.145 83.3466 155.836 83.1591 156.624 83.1591C157.412 83.1591 158.102 83.3466 158.692 83.7216C159.287 84.0966 159.749 84.6231 160.079 85.3011C160.412 85.9792 160.579 86.7727 160.579 87.6818C160.579 88.5833 160.412 89.3712 160.079 90.0455C159.749 90.7197 159.287 91.2443 158.692 91.6193C158.102 91.9943 157.412 92.1818 156.624 92.1818ZM156.624 90.9773C157.223 90.9773 157.715 90.8239 158.102 90.517C158.488 90.2102 158.774 89.8068 158.96 89.3068C159.145 88.8068 159.238 88.2652 159.238 87.6818C159.238 87.0985 159.145 86.5549 158.96 86.0511C158.774 85.5473 158.488 85.1402 158.102 84.8295C157.715 84.5189 157.223 84.3636 156.624 84.3636C156.026 84.3636 155.533 84.5189 155.147 84.8295C154.761 85.1402 154.475 85.5473 154.289 86.0511C154.103 86.5549 154.011 87.0985 154.011 87.6818C154.011 88.2652 154.103 88.8068 154.289 89.3068C154.475 89.8068 154.761 90.2102 155.147 90.517C155.533 90.8239 156.026 90.9773 156.624 90.9773ZM173.08 95.2727V90.6591H172.967C172.868 90.8182 172.728 91.0189 172.546 91.2614C172.364 91.5 172.105 91.714 171.768 91.9034C171.431 92.089 170.982 92.1818 170.421 92.1818C169.694 92.1818 169.052 91.9981 168.495 91.6307C167.938 91.2595 167.503 90.7367 167.188 90.0625C166.874 89.3845 166.717 88.5833 166.717 87.6591C166.717 86.7424 166.874 85.947 167.188 85.2727C167.503 84.5985 167.94 84.0777 168.501 83.7102C169.061 83.3428 169.709 83.1591 170.444 83.1591C171.012 83.1591 171.461 83.2538 171.79 83.4432C172.124 83.6288 172.378 83.8409 172.552 84.0795C172.73 84.3144 172.868 84.5076 172.967 84.6591H173.126V83.2727H174.421V95.2727H173.08ZM170.603 90.9773C171.141 90.9773 171.595 90.8371 171.967 90.5568C172.338 90.2727 172.62 89.8807 172.813 89.3807C173.006 88.8769 173.103 88.2955 173.103 87.6364C173.103 86.9848 173.008 86.4148 172.819 85.9261C172.629 85.4337 172.349 85.0511 171.978 84.7784C171.607 84.5019 171.148 84.3636 170.603 84.3636C170.035 84.3636 169.561 84.5095 169.183 84.8011C168.808 85.089 168.525 85.4811 168.336 85.9773C168.15 86.4697 168.058 87.0227 168.058 87.6364C168.058 88.2576 168.152 88.822 168.342 89.3295C168.535 89.8333 168.819 90.2348 169.194 90.5341C169.573 90.8295 170.042 90.9773 170.603 90.9773ZM182.376 88.4318V83.2727H183.717V92H182.376V90.5227H182.285C182.08 90.9659 181.762 91.3428 181.33 91.6534C180.898 91.9602 180.353 92.1136 179.694 92.1136C179.148 92.1136 178.664 91.9943 178.239 91.7557C177.815 91.5133 177.482 91.1496 177.239 90.6648C176.997 90.1761 176.876 89.5606 176.876 88.8182V83.2727H178.217V88.7273C178.217 89.3636 178.395 89.8712 178.751 90.25C179.111 90.6288 179.569 90.8182 180.126 90.8182C180.459 90.8182 180.798 90.733 181.143 90.5625C181.491 90.392 181.783 90.1307 182.018 89.7784C182.256 89.4261 182.376 88.9773 182.376 88.4318ZM189.832 92.1818C188.991 92.1818 188.265 91.9962 187.656 91.625C187.049 91.25 186.582 90.7273 186.252 90.0568C185.926 89.3826 185.763 88.5985 185.763 87.7045C185.763 86.8106 185.926 86.0227 186.252 85.3409C186.582 84.6553 187.04 84.1212 187.627 83.7386C188.218 83.3523 188.907 83.1591 189.695 83.1591C190.15 83.1591 190.599 83.2348 191.042 83.3864C191.485 83.5379 191.888 83.7841 192.252 84.125C192.616 84.4621 192.906 84.9091 193.121 85.4659C193.337 86.0227 193.445 86.7083 193.445 87.5227V88.0909H186.718V86.9318H192.082C192.082 86.4394 191.983 86 191.786 85.6136C191.593 85.2273 191.317 84.9223 190.957 84.6989C190.601 84.4754 190.18 84.3636 189.695 84.3636C189.161 84.3636 188.699 84.4962 188.309 84.7614C187.923 85.0227 187.625 85.3636 187.417 85.7841C187.209 86.2045 187.104 86.6553 187.104 87.1364V87.9091C187.104 88.5682 187.218 89.1269 187.445 89.5852C187.676 90.0398 187.996 90.3864 188.406 90.625C188.815 90.8598 189.29 90.9773 189.832 90.9773C190.184 90.9773 190.502 90.928 190.786 90.8295C191.074 90.7273 191.322 90.5758 191.531 90.375C191.739 90.1705 191.9 89.9167 192.013 89.6136L193.309 89.9773C193.173 90.4167 192.943 90.803 192.621 91.1364C192.299 91.4659 191.902 91.7235 191.428 91.9091C190.955 92.0909 190.423 92.1818 189.832 92.1818ZM207.121 83.2727L203.894 92H202.531L199.303 83.2727H200.758L203.167 90.2273H203.258L205.667 83.2727H207.121ZM212.124 92.1818C211.336 92.1818 210.645 91.9943 210.05 91.6193C209.46 91.2443 208.997 90.7197 208.664 90.0455C208.335 89.3712 208.17 88.5833 208.17 87.6818C208.17 86.7727 208.335 85.9792 208.664 85.3011C208.997 84.6231 209.46 84.0966 210.05 83.7216C210.645 83.3466 211.336 83.1591 212.124 83.1591C212.912 83.1591 213.602 83.3466 214.192 83.7216C214.787 84.0966 215.249 84.6231 215.579 85.3011C215.912 85.9792 216.079 86.7727 216.079 87.6818C216.079 88.5833 215.912 89.3712 215.579 90.0455C215.249 90.7197 214.787 91.2443 214.192 91.6193C213.602 91.9943 212.912 92.1818 212.124 92.1818ZM212.124 90.9773C212.723 90.9773 213.215 90.8239 213.602 90.517C213.988 90.2102 214.274 89.8068 214.46 89.3068C214.645 88.8068 214.738 88.2652 214.738 87.6818C214.738 87.0985 214.645 86.5549 214.46 86.0511C214.274 85.5473 213.988 85.1402 213.602 84.8295C213.215 84.5189 212.723 84.3636 212.124 84.3636C211.526 84.3636 211.033 84.5189 210.647 84.8295C210.261 85.1402 209.975 85.5473 209.789 86.0511C209.603 86.5549 209.511 87.0985 209.511 87.6818C209.511 88.2652 209.603 88.8068 209.789 89.3068C209.975 89.8068 210.261 90.2102 210.647 90.517C211.033 90.8239 211.526 90.9773 212.124 90.9773ZM221.671 92.1818C220.853 92.1818 220.148 91.9886 219.558 91.6023C218.967 91.2159 218.512 90.6837 218.194 90.0057C217.876 89.3277 217.717 88.553 217.717 87.6818C217.717 86.7955 217.879 86.0133 218.205 85.3352C218.535 84.6534 218.993 84.1212 219.58 83.7386C220.171 83.3523 220.861 83.1591 221.648 83.1591C222.262 83.1591 222.815 83.2727 223.308 83.5C223.8 83.7273 224.203 84.0455 224.518 84.4545C224.832 84.8636 225.027 85.3409 225.103 85.8864H223.762C223.66 85.4886 223.433 85.1364 223.08 84.8295C222.732 84.5189 222.262 84.3636 221.671 84.3636C221.148 84.3636 220.69 84.5 220.296 84.7727C219.906 85.0417 219.601 85.4223 219.381 85.9148C219.165 86.4034 219.058 86.9773 219.058 87.6364C219.058 88.3106 219.164 88.8977 219.376 89.3977C219.592 89.8977 219.895 90.286 220.285 90.5625C220.679 90.839 221.141 90.9773 221.671 90.9773C222.02 90.9773 222.336 90.9167 222.62 90.7955C222.904 90.6742 223.145 90.5 223.342 90.2727C223.539 90.0455 223.679 89.7727 223.762 89.4545H225.103C225.027 89.9697 224.84 90.4337 224.54 90.8466C224.245 91.2557 223.853 91.5814 223.364 91.8239C222.879 92.0625 222.315 92.1818 221.671 92.1818ZM230.722 92.1818C229.881 92.1818 229.156 91.9962 228.546 91.625C227.94 91.25 227.472 90.7273 227.143 90.0568C226.817 89.3826 226.654 88.5985 226.654 87.7045C226.654 86.8106 226.817 86.0227 227.143 85.3409C227.472 84.6553 227.931 84.1212 228.518 83.7386C229.109 83.3523 229.798 83.1591 230.586 83.1591C231.04 83.1591 231.489 83.2348 231.933 83.3864C232.376 83.5379 232.779 83.7841 233.143 84.125C233.506 84.4621 233.796 84.9091 234.012 85.4659C234.228 86.0227 234.336 86.7083 234.336 87.5227V88.0909H227.609V86.9318H232.972C232.972 86.4394 232.874 86 232.677 85.6136C232.484 85.2273 232.207 84.9223 231.847 84.6989C231.491 84.4754 231.071 84.3636 230.586 84.3636C230.052 84.3636 229.59 84.4962 229.2 84.7614C228.813 85.0227 228.516 85.3636 228.308 85.7841C228.099 86.2045 227.995 86.6553 227.995 87.1364V87.9091C227.995 88.5682 228.109 89.1269 228.336 89.5852C228.567 90.0398 228.887 90.3864 229.296 90.625C229.705 90.8598 230.181 90.9773 230.722 90.9773C231.075 90.9773 231.393 90.928 231.677 90.8295C231.965 90.7273 232.213 90.5758 232.421 90.375C232.629 90.1705 232.79 89.9167 232.904 89.6136L234.2 89.9773C234.063 90.4167 233.834 90.803 233.512 91.1364C233.19 91.4659 232.792 91.7235 232.319 91.9091C231.845 92.0909 231.313 92.1818 230.722 92.1818ZM231.7 82.2273L230.518 80.6364L229.336 82.2273H228.063V82.1364L229.904 79.7727H231.131L232.972 82.1364V82.2273H231.7ZM244.171 92.1818C243.444 92.1818 242.802 91.9981 242.245 91.6307C241.688 91.2595 241.253 90.7367 240.938 90.0625C240.624 89.3845 240.467 88.5833 240.467 87.6591C240.467 86.7424 240.624 85.947 240.938 85.2727C241.253 84.5985 241.69 84.0777 242.251 83.7102C242.811 83.3428 243.459 83.1591 244.194 83.1591C244.762 83.1591 245.211 83.2538 245.54 83.4432C245.874 83.6288 246.128 83.8409 246.302 84.0795C246.48 84.3144 246.618 84.5076 246.717 84.6591H246.83V80.3636H248.171V92H246.876V90.6591H246.717C246.618 90.8182 246.478 91.0189 246.296 91.2614C246.114 91.5 245.855 91.714 245.518 91.9034C245.181 92.089 244.732 92.1818 244.171 92.1818ZM244.353 90.9773C244.891 90.9773 245.345 90.8371 245.717 90.5568C246.088 90.2727 246.37 89.8807 246.563 89.3807C246.756 88.8769 246.853 88.2955 246.853 87.6364C246.853 86.9848 246.758 86.4148 246.569 85.9261C246.379 85.4337 246.099 85.0511 245.728 84.7784C245.357 84.5019 244.898 84.3636 244.353 84.3636C243.785 84.3636 243.311 84.5095 242.933 84.8011C242.558 85.089 242.275 85.4811 242.086 85.9773C241.9 86.4697 241.808 87.0227 241.808 87.6364C241.808 88.2576 241.902 88.822 242.092 89.3295C242.285 89.8333 242.569 90.2348 242.944 90.5341C243.323 90.8295 243.792 90.9773 244.353 90.9773ZM254.472 92.1818C253.631 92.1818 252.906 91.9962 252.296 91.625C251.69 91.25 251.222 90.7273 250.893 90.0568C250.567 89.3826 250.404 88.5985 250.404 87.7045C250.404 86.8106 250.567 86.0227 250.893 85.3409C251.222 84.6553 251.681 84.1212 252.268 83.7386C252.859 83.3523 253.548 83.1591 254.336 83.1591C254.79 83.1591 255.239 83.2348 255.683 83.3864C256.126 83.5379 256.529 83.7841 256.893 84.125C257.256 84.4621 257.546 84.9091 257.762 85.4659C257.978 86.0227 258.086 86.7083 258.086 87.5227V88.0909H251.359V86.9318H256.722C256.722 86.4394 256.624 86 256.427 85.6136C256.234 85.2273 255.957 84.9223 255.597 84.6989C255.241 84.4754 254.821 84.3636 254.336 84.3636C253.802 84.3636 253.34 84.4962 252.95 84.7614C252.563 85.0227 252.266 85.3636 252.058 85.7841C251.849 86.2045 251.745 86.6553 251.745 87.1364V87.9091C251.745 88.5682 251.859 89.1269 252.086 89.5852C252.317 90.0398 252.637 90.3864 253.046 90.625C253.455 90.8598 253.931 90.9773 254.472 90.9773C254.825 90.9773 255.143 90.928 255.427 90.8295C255.715 90.7273 255.963 90.5758 256.171 90.375C256.379 90.1705 256.54 89.9167 256.654 89.6136L257.95 89.9773C257.813 90.4167 257.584 90.803 257.262 91.1364C256.94 91.4659 256.542 91.7235 256.069 91.9091C255.595 92.0909 255.063 92.1818 254.472 92.1818ZM266.308 85.2273L265.103 85.5682C265.027 85.3674 264.915 85.1723 264.768 84.983C264.624 84.7898 264.427 84.6307 264.177 84.5057C263.927 84.3807 263.607 84.3182 263.217 84.3182C262.683 84.3182 262.237 84.4413 261.881 84.6875C261.529 84.9299 261.353 85.2386 261.353 85.6136C261.353 85.947 261.474 86.2102 261.717 86.4034C261.959 86.5966 262.338 86.7576 262.853 86.8864L264.148 87.2045C264.929 87.3939 265.51 87.6837 265.893 88.0739C266.275 88.4602 266.467 88.9583 266.467 89.5682C266.467 90.0682 266.323 90.5152 266.035 90.9091C265.751 91.303 265.353 91.6136 264.842 91.8409C264.33 92.0682 263.736 92.1818 263.058 92.1818C262.167 92.1818 261.431 91.9886 260.847 91.6023C260.264 91.2159 259.895 90.6515 259.739 89.9091L261.012 89.5909C261.133 90.0606 261.362 90.4129 261.7 90.6477C262.04 90.8826 262.486 91 263.035 91C263.66 91 264.156 90.8674 264.523 90.6023C264.895 90.3333 265.08 90.0114 265.08 89.6364C265.08 89.3333 264.974 89.0795 264.762 88.875C264.55 88.6667 264.224 88.5114 263.785 88.4091L262.33 88.0682C261.531 87.8788 260.944 87.5852 260.569 87.1875C260.198 86.786 260.012 86.2841 260.012 85.6818C260.012 85.1894 260.15 84.7538 260.427 84.375C260.707 83.9962 261.088 83.6989 261.569 83.483C262.054 83.267 262.603 83.1591 263.217 83.1591C264.08 83.1591 264.758 83.3485 265.251 83.7273C265.747 84.1061 266.099 84.6061 266.308 85.2273ZM272.144 92.1818C271.303 92.1818 270.578 91.9962 269.968 91.625C269.362 91.25 268.894 90.7273 268.565 90.0568C268.239 89.3826 268.076 88.5985 268.076 87.7045C268.076 86.8106 268.239 86.0227 268.565 85.3409C268.894 84.6553 269.353 84.1212 269.94 83.7386C270.531 83.3523 271.22 83.1591 272.008 83.1591C272.462 83.1591 272.911 83.2348 273.354 83.3864C273.798 83.5379 274.201 83.7841 274.565 84.125C274.928 84.4621 275.218 84.9091 275.434 85.4659C275.65 86.0227 275.758 86.7083 275.758 87.5227V88.0909H269.031V86.9318H274.394C274.394 86.4394 274.296 86 274.099 85.6136C273.906 85.2273 273.629 84.9223 273.269 84.6989C272.913 84.4754 272.493 84.3636 272.008 84.3636C271.474 84.3636 271.012 84.4962 270.621 84.7614C270.235 85.0227 269.938 85.3636 269.729 85.7841C269.521 86.2045 269.417 86.6553 269.417 87.1364V87.9091C269.417 88.5682 269.531 89.1269 269.758 89.5852C269.989 90.0398 270.309 90.3864 270.718 90.625C271.127 90.8598 271.603 90.9773 272.144 90.9773C272.496 90.9773 272.815 90.928 273.099 90.8295C273.387 90.7273 273.635 90.5758 273.843 90.375C274.051 90.1705 274.212 89.9167 274.326 89.6136L275.621 89.9773C275.485 90.4167 275.256 90.803 274.934 91.1364C274.612 91.4659 274.214 91.7235 273.741 91.9091C273.267 92.0909 272.735 92.1818 272.144 92.1818ZM277.798 83.2727H279.138V92.6364C279.138 93.1742 279.046 93.6402 278.86 94.0341C278.678 94.428 278.402 94.733 278.031 94.9489C277.663 95.1648 277.199 95.2727 276.638 95.2727C276.593 95.2727 276.548 95.2727 276.502 95.2727C276.457 95.2727 276.411 95.2727 276.366 95.2727V94.0227C276.411 94.0227 276.453 94.0227 276.491 94.0227C276.529 94.0227 276.57 94.0227 276.616 94.0227C277.025 94.0227 277.324 93.9015 277.513 93.6591C277.703 93.4205 277.798 93.0795 277.798 92.6364V83.2727ZM278.457 81.8182C278.195 81.8182 277.97 81.7292 277.781 81.5511C277.595 81.3731 277.502 81.1591 277.502 80.9091C277.502 80.6591 277.595 80.4451 277.781 80.267C277.97 80.089 278.195 80 278.457 80C278.718 80 278.942 80.089 279.127 80.267C279.317 80.4451 279.411 80.6591 279.411 80.9091C279.411 81.1591 279.317 81.3731 279.127 81.5511C278.942 81.7292 278.718 81.8182 278.457 81.8182ZM284.163 92.2045C283.61 92.2045 283.108 92.1004 282.657 91.892C282.206 91.6799 281.848 91.375 281.583 90.9773C281.318 90.5758 281.185 90.0909 281.185 89.5227C281.185 89.0227 281.284 88.6174 281.481 88.3068C281.678 87.9924 281.941 87.7462 282.271 87.5682C282.6 87.3902 282.964 87.2576 283.362 87.1705C283.763 87.0795 284.166 87.0076 284.572 86.9545C285.102 86.8864 285.532 86.8352 285.862 86.8011C286.195 86.7633 286.437 86.7008 286.589 86.6136C286.744 86.5265 286.822 86.375 286.822 86.1591V86.1136C286.822 85.553 286.668 85.1174 286.362 84.8068C286.058 84.4962 285.598 84.3409 284.981 84.3409C284.341 84.3409 283.839 84.4811 283.475 84.7614C283.112 85.0417 282.856 85.3409 282.708 85.6591L281.435 85.2045C281.663 84.6742 281.966 84.2614 282.344 83.9659C282.727 83.6667 283.144 83.4583 283.594 83.3409C284.049 83.2197 284.496 83.1591 284.935 83.1591C285.216 83.1591 285.538 83.1932 285.901 83.2614C286.269 83.3258 286.623 83.4602 286.964 83.6648C287.308 83.8693 287.594 84.178 287.822 84.5909C288.049 85.0038 288.163 85.5568 288.163 86.25V92H286.822V90.8182H286.754C286.663 91.0076 286.511 91.2102 286.299 91.4261C286.087 91.642 285.805 91.8258 285.452 91.9773C285.1 92.1288 284.67 92.2045 284.163 92.2045ZM284.367 91C284.897 91 285.344 90.8958 285.708 90.6875C286.076 90.4792 286.352 90.2102 286.538 89.8807C286.727 89.5511 286.822 89.2045 286.822 88.8409V87.6136C286.765 87.6818 286.64 87.7443 286.447 87.8011C286.257 87.8542 286.038 87.9015 285.788 87.9432C285.541 87.9811 285.301 88.0152 285.066 88.0455C284.835 88.072 284.647 88.0947 284.504 88.1136C284.155 88.1591 283.829 88.233 283.526 88.3352C283.227 88.4337 282.985 88.5833 282.799 88.7841C282.617 88.9811 282.526 89.25 282.526 89.5909C282.526 90.0568 282.699 90.4091 283.043 90.6477C283.392 90.8826 283.833 91 284.367 91ZM54.4368 116.182C53.6186 116.182 52.9141 115.989 52.3232 115.602C51.7322 115.216 51.2777 114.684 50.9595 114.006C50.6413 113.328 50.4822 112.553 50.4822 111.682C50.4822 110.795 50.6451 110.013 50.9709 109.335C51.3004 108.653 51.7588 108.121 52.3459 107.739C52.9368 107.352 53.6262 107.159 54.4141 107.159C55.0277 107.159 55.5807 107.273 56.0732 107.5C56.5656 107.727 56.969 108.045 57.2834 108.455C57.5978 108.864 57.7929 109.341 57.8686 109.886H56.5277C56.4254 109.489 56.1982 109.136 55.8459 108.83C55.4974 108.519 55.0277 108.364 54.4368 108.364C53.9141 108.364 53.4557 108.5 53.0618 108.773C52.6716 109.042 52.3667 109.422 52.147 109.915C51.9311 110.403 51.8232 110.977 51.8232 111.636C51.8232 112.311 51.9292 112.898 52.1413 113.398C52.3572 113.898 52.6603 114.286 53.0504 114.562C53.4444 114.839 53.9065 114.977 54.4368 114.977C54.7853 114.977 55.1016 114.917 55.3857 114.795C55.6697 114.674 55.9103 114.5 56.1072 114.273C56.3042 114.045 56.4444 113.773 56.5277 113.455H57.8686C57.7929 113.97 57.6054 114.434 57.3061 114.847C57.0107 115.256 56.6186 115.581 56.13 115.824C55.6451 116.062 55.0807 116.182 54.4368 116.182ZM59.8288 116V107.273H61.1243V108.591H61.2152C61.3743 108.159 61.6622 107.809 62.0788 107.54C62.4955 107.271 62.9652 107.136 63.4879 107.136C63.5864 107.136 63.7095 107.138 63.8572 107.142C64.005 107.146 64.1167 107.152 64.1925 107.159V108.523C64.147 108.511 64.0429 108.494 63.88 108.472C63.7209 108.445 63.5523 108.432 63.3743 108.432C62.95 108.432 62.5713 108.521 62.2379 108.699C61.9084 108.873 61.647 109.116 61.4538 109.426C61.2644 109.733 61.1697 110.083 61.1697 110.477V116H59.8288ZM65.782 116V107.273H67.1229V116H65.782ZM66.4638 105.818C66.2024 105.818 65.977 105.729 65.7876 105.551C65.602 105.373 65.5092 105.159 65.5092 104.909C65.5092 104.659 65.602 104.445 65.7876 104.267C65.977 104.089 66.2024 104 66.4638 104C66.7251 104 66.9486 104.089 67.1342 104.267C67.3236 104.445 67.4183 104.659 67.4183 104.909C67.4183 105.159 67.3236 105.373 67.1342 105.551C66.9486 105.729 66.7251 105.818 66.4638 105.818ZM69.5788 119.273V107.273H70.8743V108.659H71.0334C71.1319 108.508 71.2682 108.314 71.4425 108.08C71.6205 107.841 71.8743 107.629 72.2038 107.443C72.5372 107.254 72.9879 107.159 73.5561 107.159C74.291 107.159 74.9387 107.343 75.4993 107.71C76.0599 108.078 76.4974 108.598 76.8118 109.273C77.1262 109.947 77.2834 110.742 77.2834 111.659C77.2834 112.583 77.1262 113.384 76.8118 114.062C76.4974 114.737 76.0618 115.259 75.505 115.631C74.9482 115.998 74.3061 116.182 73.5788 116.182C73.0182 116.182 72.5694 116.089 72.2322 115.903C71.8951 115.714 71.6357 115.5 71.4538 115.261C71.272 115.019 71.1319 114.818 71.0334 114.659H70.9197V119.273H69.5788ZM70.897 111.636C70.897 112.295 70.9936 112.877 71.1868 113.381C71.38 113.881 71.6622 114.273 72.0334 114.557C72.4046 114.837 72.8591 114.977 73.397 114.977C73.9576 114.977 74.4254 114.83 74.8004 114.534C75.1792 114.235 75.4633 113.833 75.6527 113.33C75.8459 112.822 75.9425 112.258 75.9425 111.636C75.9425 111.023 75.8478 110.47 75.6584 109.977C75.4728 109.481 75.1906 109.089 74.8118 108.801C74.4368 108.509 73.9652 108.364 73.397 108.364C72.8516 108.364 72.3932 108.502 72.022 108.778C71.6508 109.051 71.3705 109.434 71.1811 109.926C70.9917 110.415 70.897 110.985 70.897 111.636ZM83.1243 107.273V108.409H78.6016V107.273H83.1243ZM79.9197 105.182H81.2607V113.5C81.2607 113.879 81.3156 114.163 81.4254 114.352C81.5391 114.538 81.683 114.663 81.8572 114.727C82.0353 114.788 82.2228 114.818 82.4197 114.818C82.5675 114.818 82.6887 114.811 82.7834 114.795C82.8781 114.777 82.9538 114.761 83.0107 114.75L83.2834 115.955C83.1925 115.989 83.0656 116.023 82.9027 116.057C82.7398 116.095 82.5334 116.114 82.2834 116.114C81.9046 116.114 81.5334 116.032 81.1697 115.869C80.8099 115.706 80.5107 115.458 80.272 115.125C80.0372 114.792 79.9197 114.371 79.9197 113.864V105.182ZM88.593 116.182C87.8052 116.182 87.1139 115.994 86.5192 115.619C85.9283 115.244 85.4661 114.72 85.1328 114.045C84.8033 113.371 84.6385 112.583 84.6385 111.682C84.6385 110.773 84.8033 109.979 85.1328 109.301C85.4661 108.623 85.9283 108.097 86.5192 107.722C87.1139 107.347 87.8052 107.159 88.593 107.159C89.3809 107.159 90.0703 107.347 90.6612 107.722C91.2559 108.097 91.718 108.623 92.0476 109.301C92.3809 109.979 92.5476 110.773 92.5476 111.682C92.5476 112.583 92.3809 113.371 92.0476 114.045C91.718 114.72 91.2559 115.244 90.6612 115.619C90.0703 115.994 89.3809 116.182 88.593 116.182ZM88.593 114.977C89.1915 114.977 89.6839 114.824 90.0703 114.517C90.4567 114.21 90.7427 113.807 90.9283 113.307C91.1139 112.807 91.2067 112.265 91.2067 111.682C91.2067 111.098 91.1139 110.555 90.9283 110.051C90.7427 109.547 90.4567 109.14 90.0703 108.83C89.6839 108.519 89.1915 108.364 88.593 108.364C87.9946 108.364 87.5021 108.519 87.1158 108.83C86.7294 109.14 86.4434 109.547 86.2578 110.051C86.0722 110.555 85.9794 111.098 85.9794 111.682C85.9794 112.265 86.0722 112.807 86.2578 113.307C86.4434 113.807 86.7294 114.21 87.1158 114.517C87.5021 114.824 87.9946 114.977 88.593 114.977ZM98.1172 119.455C97.4695 119.455 96.9126 119.371 96.4467 119.205C95.9808 119.042 95.5926 118.826 95.282 118.557C94.9751 118.292 94.7308 118.008 94.549 117.705L95.6172 116.955C95.7384 117.114 95.8918 117.295 96.0774 117.5C96.263 117.708 96.5168 117.888 96.8388 118.04C97.1645 118.195 97.5907 118.273 98.1172 118.273C98.8217 118.273 99.4032 118.102 99.8615 117.761C100.32 117.42 100.549 116.886 100.549 116.159V114.386H100.435C100.337 114.545 100.197 114.742 100.015 114.977C99.8369 115.208 99.5793 115.415 99.2422 115.597C98.9089 115.775 98.4581 115.864 97.8899 115.864C97.1854 115.864 96.5528 115.697 95.9922 115.364C95.4354 115.03 94.9941 114.545 94.6683 113.909C94.3464 113.273 94.1854 112.5 94.1854 111.591C94.1854 110.697 94.3426 109.919 94.657 109.256C94.9714 108.589 95.4089 108.074 95.9695 107.71C96.5301 107.343 97.1778 107.159 97.9126 107.159C98.4808 107.159 98.9316 107.254 99.2649 107.443C99.602 107.629 99.8596 107.841 100.038 108.08C100.219 108.314 100.36 108.508 100.458 108.659H100.594V107.273H101.89V116.25C101.89 117 101.719 117.61 101.379 118.08C101.041 118.553 100.587 118.9 100.015 119.119C99.4467 119.343 98.8142 119.455 98.1172 119.455ZM98.0717 114.659C98.6096 114.659 99.0642 114.536 99.4354 114.29C99.8066 114.044 100.089 113.689 100.282 113.227C100.475 112.765 100.572 112.212 100.572 111.568C100.572 110.939 100.477 110.384 100.288 109.903C100.098 109.422 99.8179 109.045 99.4467 108.773C99.0755 108.5 98.6172 108.364 98.0717 108.364C97.5036 108.364 97.0301 108.508 96.6513 108.795C96.2763 109.083 95.9941 109.47 95.8047 109.955C95.6191 110.439 95.5263 110.977 95.5263 111.568C95.5263 112.174 95.621 112.71 95.8104 113.176C96.0036 113.638 96.2876 114.002 96.6626 114.267C97.0414 114.528 97.5111 114.659 98.0717 114.659ZM104.344 116V107.273H105.64V108.591H105.731C105.89 108.159 106.178 107.809 106.594 107.54C107.011 107.271 107.481 107.136 108.004 107.136C108.102 107.136 108.225 107.138 108.373 107.142C108.521 107.146 108.632 107.152 108.708 107.159V108.523C108.663 108.511 108.558 108.494 108.396 108.472C108.237 108.445 108.068 108.432 107.89 108.432C107.466 108.432 107.087 108.521 106.754 108.699C106.424 108.873 106.163 109.116 105.969 109.426C105.78 109.733 105.685 110.083 105.685 110.477V116H104.344ZM112.866 116.205C112.313 116.205 111.811 116.1 111.36 115.892C110.909 115.68 110.551 115.375 110.286 114.977C110.021 114.576 109.888 114.091 109.888 113.523C109.888 113.023 109.987 112.617 110.184 112.307C110.381 111.992 110.644 111.746 110.974 111.568C111.303 111.39 111.667 111.258 112.065 111.17C112.466 111.08 112.87 111.008 113.275 110.955C113.805 110.886 114.235 110.835 114.565 110.801C114.898 110.763 115.14 110.701 115.292 110.614C115.447 110.527 115.525 110.375 115.525 110.159V110.114C115.525 109.553 115.371 109.117 115.065 108.807C114.762 108.496 114.301 108.341 113.684 108.341C113.044 108.341 112.542 108.481 112.178 108.761C111.815 109.042 111.559 109.341 111.411 109.659L110.138 109.205C110.366 108.674 110.669 108.261 111.048 107.966C111.43 107.667 111.847 107.458 112.298 107.341C112.752 107.22 113.199 107.159 113.638 107.159C113.919 107.159 114.241 107.193 114.604 107.261C114.972 107.326 115.326 107.46 115.667 107.665C116.012 107.869 116.298 108.178 116.525 108.591C116.752 109.004 116.866 109.557 116.866 110.25V116H115.525V114.818H115.457C115.366 115.008 115.214 115.21 115.002 115.426C114.79 115.642 114.508 115.826 114.156 115.977C113.803 116.129 113.373 116.205 112.866 116.205ZM113.07 115C113.601 115 114.048 114.896 114.411 114.688C114.779 114.479 115.055 114.21 115.241 113.881C115.43 113.551 115.525 113.205 115.525 112.841V111.614C115.468 111.682 115.343 111.744 115.15 111.801C114.96 111.854 114.741 111.902 114.491 111.943C114.245 111.981 114.004 112.015 113.769 112.045C113.538 112.072 113.351 112.095 113.207 112.114C112.858 112.159 112.532 112.233 112.229 112.335C111.93 112.434 111.688 112.583 111.502 112.784C111.32 112.981 111.229 113.25 111.229 113.591C111.229 114.057 111.402 114.409 111.746 114.648C112.095 114.883 112.536 115 113.07 115ZM123.2 107.273V108.409H118.495V107.273H123.2ZM119.904 116V106.068C119.904 105.568 120.022 105.152 120.256 104.818C120.491 104.485 120.796 104.235 121.171 104.068C121.546 103.902 121.942 103.818 122.359 103.818C122.688 103.818 122.957 103.845 123.165 103.898C123.374 103.951 123.529 104 123.631 104.045L123.245 105.205C123.177 105.182 123.082 105.153 122.961 105.119C122.844 105.085 122.688 105.068 122.495 105.068C122.052 105.068 121.732 105.18 121.535 105.403C121.342 105.627 121.245 105.955 121.245 106.386V116H119.904ZM127.397 116.205C126.844 116.205 126.342 116.1 125.891 115.892C125.441 115.68 125.083 115.375 124.817 114.977C124.552 114.576 124.42 114.091 124.42 113.523C124.42 113.023 124.518 112.617 124.715 112.307C124.912 111.992 125.175 111.746 125.505 111.568C125.835 111.39 126.198 111.258 126.596 111.17C126.997 111.08 127.401 111.008 127.806 110.955C128.336 110.886 128.766 110.835 129.096 110.801C129.429 110.763 129.672 110.701 129.823 110.614C129.978 110.527 130.056 110.375 130.056 110.159V110.114C130.056 109.553 129.903 109.117 129.596 108.807C129.293 108.496 128.833 108.341 128.215 108.341C127.575 108.341 127.073 108.481 126.71 108.761C126.346 109.042 126.09 109.341 125.942 109.659L124.67 109.205C124.897 108.674 125.2 108.261 125.579 107.966C125.961 107.667 126.378 107.458 126.829 107.341C127.283 107.22 127.73 107.159 128.17 107.159C128.45 107.159 128.772 107.193 129.136 107.261C129.503 107.326 129.857 107.46 130.198 107.665C130.543 107.869 130.829 108.178 131.056 108.591C131.283 109.004 131.397 109.557 131.397 110.25V116H130.056V114.818H129.988C129.897 115.008 129.746 115.21 129.533 115.426C129.321 115.642 129.039 115.826 128.687 115.977C128.335 116.129 127.905 116.205 127.397 116.205ZM127.602 115C128.132 115 128.579 114.896 128.942 114.688C129.31 114.479 129.586 114.21 129.772 113.881C129.961 113.551 130.056 113.205 130.056 112.841V111.614C129.999 111.682 129.874 111.744 129.681 111.801C129.492 111.854 129.272 111.902 129.022 111.943C128.776 111.981 128.535 112.015 128.3 112.045C128.069 112.072 127.882 112.095 127.738 112.114C127.389 112.159 127.064 112.233 126.761 112.335C126.461 112.434 126.219 112.583 126.033 112.784C125.852 112.981 125.761 113.25 125.761 113.591C125.761 114.057 125.933 114.409 126.278 114.648C126.626 114.883 127.067 115 127.602 115ZM133.844 116V107.273H135.14V108.591H135.231C135.39 108.159 135.678 107.809 136.094 107.54C136.511 107.271 136.981 107.136 137.504 107.136C137.602 107.136 137.725 107.138 137.873 107.142C138.021 107.146 138.132 107.152 138.208 107.159V108.523C138.163 108.511 138.058 108.494 137.896 108.472C137.737 108.445 137.568 108.432 137.39 108.432C136.966 108.432 136.587 108.521 136.254 108.699C135.924 108.873 135.663 109.116 135.469 109.426C135.28 109.733 135.185 110.083 135.185 110.477V116H133.844ZM147.843 116.182C147.055 116.182 146.364 115.994 145.769 115.619C145.178 115.244 144.716 114.72 144.383 114.045C144.053 113.371 143.888 112.583 143.888 111.682C143.888 110.773 144.053 109.979 144.383 109.301C144.716 108.623 145.178 108.097 145.769 107.722C146.364 107.347 147.055 107.159 147.843 107.159C148.631 107.159 149.32 107.347 149.911 107.722C150.506 108.097 150.968 108.623 151.298 109.301C151.631 109.979 151.798 110.773 151.798 111.682C151.798 112.583 151.631 113.371 151.298 114.045C150.968 114.72 150.506 115.244 149.911 115.619C149.32 115.994 148.631 116.182 147.843 116.182ZM147.843 114.977C148.442 114.977 148.934 114.824 149.32 114.517C149.707 114.21 149.993 113.807 150.178 113.307C150.364 112.807 150.457 112.265 150.457 111.682C150.457 111.098 150.364 110.555 150.178 110.051C149.993 109.547 149.707 109.14 149.32 108.83C148.934 108.519 148.442 108.364 147.843 108.364C147.245 108.364 146.752 108.519 146.366 108.83C145.979 109.14 145.693 109.547 145.508 110.051C145.322 110.555 145.229 111.098 145.229 111.682C145.229 112.265 145.322 112.807 145.508 113.307C145.693 113.807 145.979 114.21 146.366 114.517C146.752 114.824 147.245 114.977 147.843 114.977ZM159.344 112.432V107.273H160.685V116H159.344V114.523H159.254C159.049 114.966 158.731 115.343 158.299 115.653C157.867 115.96 157.322 116.114 156.663 116.114C156.117 116.114 155.632 115.994 155.208 115.756C154.784 115.513 154.451 115.15 154.208 114.665C153.966 114.176 153.844 113.561 153.844 112.818V107.273H155.185V112.727C155.185 113.364 155.363 113.871 155.719 114.25C156.079 114.629 156.538 114.818 157.094 114.818C157.428 114.818 157.767 114.733 158.112 114.562C158.46 114.392 158.752 114.131 158.987 113.778C159.225 113.426 159.344 112.977 159.344 112.432ZM170.937 116.182C170.21 116.182 169.567 115.998 169.011 115.631C168.454 115.259 168.018 114.737 167.704 114.062C167.389 113.384 167.232 112.583 167.232 111.659C167.232 110.742 167.389 109.947 167.704 109.273C168.018 108.598 168.456 108.078 169.016 107.71C169.577 107.343 170.225 107.159 170.96 107.159C171.528 107.159 171.977 107.254 172.306 107.443C172.639 107.629 172.893 107.841 173.067 108.08C173.246 108.314 173.384 108.508 173.482 108.659H173.596V104.364H174.937V116H173.641V114.659H173.482C173.384 114.818 173.244 115.019 173.062 115.261C172.88 115.5 172.621 115.714 172.283 115.903C171.946 116.089 171.497 116.182 170.937 116.182ZM171.119 114.977C171.656 114.977 172.111 114.837 172.482 114.557C172.853 114.273 173.136 113.881 173.329 113.381C173.522 112.877 173.619 112.295 173.619 111.636C173.619 110.985 173.524 110.415 173.335 109.926C173.145 109.434 172.865 109.051 172.494 108.778C172.122 108.502 171.664 108.364 171.119 108.364C170.55 108.364 170.077 108.509 169.698 108.801C169.323 109.089 169.041 109.481 168.852 109.977C168.666 110.47 168.573 111.023 168.573 111.636C168.573 112.258 168.668 112.822 168.857 113.33C169.05 113.833 169.335 114.235 169.71 114.534C170.088 114.83 170.558 114.977 171.119 114.977ZM181.238 116.182C180.397 116.182 179.672 115.996 179.062 115.625C178.456 115.25 177.988 114.727 177.658 114.057C177.333 113.383 177.17 112.598 177.17 111.705C177.17 110.811 177.333 110.023 177.658 109.341C177.988 108.655 178.446 108.121 179.033 107.739C179.624 107.352 180.314 107.159 181.102 107.159C181.556 107.159 182.005 107.235 182.448 107.386C182.891 107.538 183.295 107.784 183.658 108.125C184.022 108.462 184.312 108.909 184.528 109.466C184.744 110.023 184.852 110.708 184.852 111.523V112.091H178.124V110.932H183.488C183.488 110.439 183.389 110 183.192 109.614C182.999 109.227 182.723 108.922 182.363 108.699C182.007 108.475 181.586 108.364 181.102 108.364C180.567 108.364 180.105 108.496 179.715 108.761C179.329 109.023 179.031 109.364 178.823 109.784C178.615 110.205 178.511 110.655 178.511 111.136V111.909C178.511 112.568 178.624 113.127 178.852 113.585C179.083 114.04 179.403 114.386 179.812 114.625C180.221 114.86 180.696 114.977 181.238 114.977C181.59 114.977 181.908 114.928 182.192 114.83C182.48 114.727 182.728 114.576 182.937 114.375C183.145 114.17 183.306 113.917 183.42 113.614L184.715 113.977C184.579 114.417 184.35 114.803 184.028 115.136C183.706 115.466 183.308 115.723 182.835 115.909C182.361 116.091 181.829 116.182 181.238 116.182ZM193.073 109.227L191.869 109.568C191.793 109.367 191.681 109.172 191.533 108.983C191.389 108.79 191.192 108.631 190.942 108.506C190.692 108.381 190.372 108.318 189.982 108.318C189.448 108.318 189.003 108.441 188.647 108.688C188.295 108.93 188.119 109.239 188.119 109.614C188.119 109.947 188.24 110.21 188.482 110.403C188.725 110.597 189.103 110.758 189.619 110.886L190.914 111.205C191.694 111.394 192.276 111.684 192.658 112.074C193.041 112.46 193.232 112.958 193.232 113.568C193.232 114.068 193.088 114.515 192.8 114.909C192.516 115.303 192.119 115.614 191.607 115.841C191.096 116.068 190.501 116.182 189.823 116.182C188.933 116.182 188.196 115.989 187.613 115.602C187.03 115.216 186.66 114.652 186.505 113.909L187.778 113.591C187.899 114.061 188.128 114.413 188.465 114.648C188.806 114.883 189.251 115 189.8 115C190.425 115 190.922 114.867 191.289 114.602C191.66 114.333 191.846 114.011 191.846 113.636C191.846 113.333 191.74 113.08 191.528 112.875C191.316 112.667 190.99 112.511 190.55 112.409L189.096 112.068C188.297 111.879 187.71 111.585 187.335 111.188C186.963 110.786 186.778 110.284 186.778 109.682C186.778 109.189 186.916 108.754 187.192 108.375C187.473 107.996 187.853 107.699 188.335 107.483C188.819 107.267 189.369 107.159 189.982 107.159C190.846 107.159 191.524 107.348 192.016 107.727C192.513 108.106 192.865 108.606 193.073 109.227ZM198.796 116.182C197.978 116.182 197.273 115.989 196.683 115.602C196.092 115.216 195.637 114.684 195.319 114.006C195.001 113.328 194.842 112.553 194.842 111.682C194.842 110.795 195.004 110.013 195.33 109.335C195.66 108.653 196.118 108.121 196.705 107.739C197.296 107.352 197.986 107.159 198.773 107.159C199.387 107.159 199.94 107.273 200.433 107.5C200.925 107.727 201.328 108.045 201.643 108.455C201.957 108.864 202.152 109.341 202.228 109.886H200.887C200.785 109.489 200.558 109.136 200.205 108.83C199.857 108.519 199.387 108.364 198.796 108.364C198.273 108.364 197.815 108.5 197.421 108.773C197.031 109.042 196.726 109.422 196.506 109.915C196.29 110.403 196.183 110.977 196.183 111.636C196.183 112.311 196.289 112.898 196.501 113.398C196.717 113.898 197.02 114.286 197.41 114.562C197.804 114.839 198.266 114.977 198.796 114.977C199.145 114.977 199.461 114.917 199.745 114.795C200.029 114.674 200.27 114.5 200.467 114.273C200.664 114.045 200.804 113.773 200.887 113.455H202.228C202.152 113.97 201.965 114.434 201.665 114.847C201.37 115.256 200.978 115.581 200.489 115.824C200.004 116.062 199.44 116.182 198.796 116.182ZM204.188 116V107.273H205.484V108.591H205.575C205.734 108.159 206.022 107.809 206.438 107.54C206.855 107.271 207.325 107.136 207.847 107.136C207.946 107.136 208.069 107.138 208.217 107.142C208.364 107.146 208.476 107.152 208.552 107.159V108.523C208.506 108.511 208.402 108.494 208.239 108.472C208.08 108.445 207.912 108.432 207.734 108.432C207.309 108.432 206.931 108.521 206.597 108.699C206.268 108.873 206.006 109.116 205.813 109.426C205.624 109.733 205.529 110.083 205.529 110.477V116H204.188ZM210.141 116V107.273H211.482V116H210.141ZM210.823 105.818C210.562 105.818 210.336 105.729 210.147 105.551C209.961 105.373 209.869 105.159 209.869 104.909C209.869 104.659 209.961 104.445 210.147 104.267C210.336 104.089 210.562 104 210.823 104C211.085 104 211.308 104.089 211.494 104.267C211.683 104.445 211.778 104.659 211.778 104.909C211.778 105.159 211.683 105.373 211.494 105.551C211.308 105.729 211.085 105.818 210.823 105.818ZM213.938 119.273V107.273H215.234V108.659H215.393C215.491 108.508 215.628 108.314 215.802 108.08C215.98 107.841 216.234 107.629 216.563 107.443C216.897 107.254 217.347 107.159 217.915 107.159C218.65 107.159 219.298 107.343 219.859 107.71C220.419 108.078 220.857 108.598 221.171 109.273C221.486 109.947 221.643 110.742 221.643 111.659C221.643 112.583 221.486 113.384 221.171 114.062C220.857 114.737 220.421 115.259 219.864 115.631C219.308 115.998 218.665 116.182 217.938 116.182C217.378 116.182 216.929 116.089 216.592 115.903C216.254 115.714 215.995 115.5 215.813 115.261C215.631 115.019 215.491 114.818 215.393 114.659H215.279V119.273H213.938ZM215.256 111.636C215.256 112.295 215.353 112.877 215.546 113.381C215.739 113.881 216.022 114.273 216.393 114.557C216.764 114.837 217.219 114.977 217.756 114.977C218.317 114.977 218.785 114.83 219.16 114.534C219.539 114.235 219.823 113.833 220.012 113.33C220.205 112.822 220.302 112.258 220.302 111.636C220.302 111.023 220.207 110.47 220.018 109.977C219.832 109.481 219.55 109.089 219.171 108.801C218.796 108.509 218.325 108.364 217.756 108.364C217.211 108.364 216.753 108.502 216.381 108.778C216.01 109.051 215.73 109.434 215.54 109.926C215.351 110.415 215.256 110.985 215.256 111.636ZM227.484 107.273V108.409H222.961V107.273H227.484ZM224.279 105.182H225.62V113.5C225.62 113.879 225.675 114.163 225.785 114.352C225.898 114.538 226.042 114.663 226.217 114.727C226.395 114.788 226.582 114.818 226.779 114.818C226.927 114.818 227.048 114.811 227.143 114.795C227.237 114.777 227.313 114.761 227.37 114.75L227.643 115.955C227.552 115.989 227.425 116.023 227.262 116.057C227.099 116.095 226.893 116.114 226.643 116.114C226.264 116.114 225.893 116.032 225.529 115.869C225.169 115.706 224.87 115.458 224.631 115.125C224.397 114.792 224.279 114.371 224.279 113.864V105.182ZM232.952 116.182C232.165 116.182 231.473 115.994 230.879 115.619C230.288 115.244 229.826 114.72 229.492 114.045C229.163 113.371 228.998 112.583 228.998 111.682C228.998 110.773 229.163 109.979 229.492 109.301C229.826 108.623 230.288 108.097 230.879 107.722C231.473 107.347 232.165 107.159 232.952 107.159C233.74 107.159 234.43 107.347 235.021 107.722C235.615 108.097 236.077 108.623 236.407 109.301C236.74 109.979 236.907 110.773 236.907 111.682C236.907 112.583 236.74 113.371 236.407 114.045C236.077 114.72 235.615 115.244 235.021 115.619C234.43 115.994 233.74 116.182 232.952 116.182ZM232.952 114.977C233.551 114.977 234.043 114.824 234.43 114.517C234.816 114.21 235.102 113.807 235.288 113.307C235.473 112.807 235.566 112.265 235.566 111.682C235.566 111.098 235.473 110.555 235.288 110.051C235.102 109.547 234.816 109.14 234.43 108.83C234.043 108.519 233.551 108.364 232.952 108.364C232.354 108.364 231.862 108.519 231.475 108.83C231.089 109.14 230.803 109.547 230.617 110.051C230.432 110.555 230.339 111.098 230.339 111.682C230.339 112.265 230.432 112.807 230.617 113.307C230.803 113.807 231.089 114.21 231.475 114.517C231.862 114.824 232.354 114.977 232.952 114.977ZM242.477 119.455C241.829 119.455 241.272 119.371 240.806 119.205C240.34 119.042 239.952 118.826 239.641 118.557C239.335 118.292 239.09 118.008 238.908 117.705L239.977 116.955C240.098 117.114 240.251 117.295 240.437 117.5C240.622 117.708 240.876 117.888 241.198 118.04C241.524 118.195 241.95 118.273 242.477 118.273C243.181 118.273 243.763 118.102 244.221 117.761C244.679 117.42 244.908 116.886 244.908 116.159V114.386H244.795C244.696 114.545 244.556 114.742 244.374 114.977C244.196 115.208 243.939 115.415 243.602 115.597C243.268 115.775 242.817 115.864 242.249 115.864C241.545 115.864 240.912 115.697 240.352 115.364C239.795 115.03 239.353 114.545 239.028 113.909C238.706 113.273 238.545 112.5 238.545 111.591C238.545 110.697 238.702 109.919 239.016 109.256C239.331 108.589 239.768 108.074 240.329 107.71C240.889 107.343 241.537 107.159 242.272 107.159C242.84 107.159 243.291 107.254 243.624 107.443C243.961 107.629 244.219 107.841 244.397 108.08C244.579 108.314 244.719 108.508 244.817 108.659H244.954V107.273H246.249V116.25C246.249 117 246.079 117.61 245.738 118.08C245.401 118.553 244.946 118.9 244.374 119.119C243.806 119.343 243.174 119.455 242.477 119.455ZM242.431 114.659C242.969 114.659 243.424 114.536 243.795 114.29C244.166 114.044 244.448 113.689 244.641 113.227C244.835 112.765 244.931 112.212 244.931 111.568C244.931 110.939 244.836 110.384 244.647 109.903C244.458 109.422 244.177 109.045 243.806 108.773C243.435 108.5 242.977 108.364 242.431 108.364C241.863 108.364 241.389 108.508 241.011 108.795C240.636 109.083 240.353 109.47 240.164 109.955C239.978 110.439 239.886 110.977 239.886 111.568C239.886 112.174 239.98 112.71 240.17 113.176C240.363 113.638 240.647 114.002 241.022 114.267C241.401 114.528 241.871 114.659 242.431 114.659ZM248.704 116V107.273H249.999V108.591H250.09C250.249 108.159 250.537 107.809 250.954 107.54C251.371 107.271 251.84 107.136 252.363 107.136C252.461 107.136 252.585 107.138 252.732 107.142C252.88 107.146 252.992 107.152 253.067 107.159V108.523C253.022 108.511 252.918 108.494 252.755 108.472C252.596 108.445 252.427 108.432 252.249 108.432C251.825 108.432 251.446 108.521 251.113 108.699C250.783 108.873 250.522 109.116 250.329 109.426C250.139 109.733 250.045 110.083 250.045 110.477V116H248.704ZM257.225 116.205C256.672 116.205 256.17 116.1 255.719 115.892C255.269 115.68 254.911 115.375 254.646 114.977C254.38 114.576 254.248 114.091 254.248 113.523C254.248 113.023 254.346 112.617 254.543 112.307C254.74 111.992 255.004 111.746 255.333 111.568C255.663 111.39 256.026 111.258 256.424 111.17C256.826 111.08 257.229 111.008 257.634 110.955C258.165 110.886 258.594 110.835 258.924 110.801C259.257 110.763 259.5 110.701 259.651 110.614C259.807 110.527 259.884 110.375 259.884 110.159V110.114C259.884 109.553 259.731 109.117 259.424 108.807C259.121 108.496 258.661 108.341 258.043 108.341C257.403 108.341 256.901 108.481 256.538 108.761C256.174 109.042 255.918 109.341 255.771 109.659L254.498 109.205C254.725 108.674 255.028 108.261 255.407 107.966C255.79 107.667 256.206 107.458 256.657 107.341C257.112 107.22 257.558 107.159 257.998 107.159C258.278 107.159 258.6 107.193 258.964 107.261C259.331 107.326 259.685 107.46 260.026 107.665C260.371 107.869 260.657 108.178 260.884 108.591C261.112 109.004 261.225 109.557 261.225 110.25V116H259.884V114.818H259.816C259.725 115.008 259.574 115.21 259.362 115.426C259.149 115.642 258.867 115.826 258.515 115.977C258.163 116.129 257.733 116.205 257.225 116.205ZM257.43 115C257.96 115 258.407 114.896 258.771 114.688C259.138 114.479 259.415 114.21 259.6 113.881C259.79 113.551 259.884 113.205 259.884 112.841V111.614C259.827 111.682 259.702 111.744 259.509 111.801C259.32 111.854 259.1 111.902 258.85 111.943C258.604 111.981 258.363 112.015 258.129 112.045C257.897 112.072 257.71 112.095 257.566 112.114C257.218 112.159 256.892 112.233 256.589 112.335C256.29 112.434 256.047 112.583 255.862 112.784C255.68 112.981 255.589 113.25 255.589 113.591C255.589 114.057 255.761 114.409 256.106 114.648C256.454 114.883 256.896 115 257.43 115ZM267.559 107.273V108.409H262.854V107.273H267.559ZM264.263 116V106.068C264.263 105.568 264.381 105.152 264.616 104.818C264.851 104.485 265.156 104.235 265.531 104.068C265.906 103.902 266.301 103.818 266.718 103.818C267.048 103.818 267.317 103.845 267.525 103.898C267.733 103.951 267.888 104 267.991 104.045L267.604 105.205C267.536 105.182 267.442 105.153 267.32 105.119C267.203 105.085 267.048 105.068 266.854 105.068C266.411 105.068 266.091 105.18 265.894 105.403C265.701 105.627 265.604 105.955 265.604 106.386V116H264.263ZM271.756 116.205C271.203 116.205 270.701 116.1 270.251 115.892C269.8 115.68 269.442 115.375 269.177 114.977C268.912 114.576 268.779 114.091 268.779 113.523C268.779 113.023 268.878 112.617 269.075 112.307C269.272 111.992 269.535 111.746 269.864 111.568C270.194 111.39 270.558 111.258 270.955 111.17C271.357 111.08 271.76 111.008 272.165 110.955C272.696 110.886 273.126 110.835 273.455 110.801C273.789 110.763 274.031 110.701 274.183 110.614C274.338 110.527 274.415 110.375 274.415 110.159V110.114C274.415 109.553 274.262 109.117 273.955 108.807C273.652 108.496 273.192 108.341 272.575 108.341C271.934 108.341 271.433 108.481 271.069 108.761C270.705 109.042 270.45 109.341 270.302 109.659L269.029 109.205C269.256 108.674 269.559 108.261 269.938 107.966C270.321 107.667 270.737 107.458 271.188 107.341C271.643 107.22 272.09 107.159 272.529 107.159C272.809 107.159 273.131 107.193 273.495 107.261C273.862 107.326 274.217 107.46 274.558 107.665C274.902 107.869 275.188 108.178 275.415 108.591C275.643 109.004 275.756 109.557 275.756 110.25V116H274.415V114.818H274.347C274.256 115.008 274.105 115.21 273.893 115.426C273.681 115.642 273.398 115.826 273.046 115.977C272.694 116.129 272.264 116.205 271.756 116.205ZM271.961 115C272.491 115 272.938 114.896 273.302 114.688C273.669 114.479 273.946 114.21 274.131 113.881C274.321 113.551 274.415 113.205 274.415 112.841V111.614C274.359 111.682 274.234 111.744 274.04 111.801C273.851 111.854 273.631 111.902 273.381 111.943C273.135 111.981 272.895 112.015 272.66 112.045C272.429 112.072 272.241 112.095 272.097 112.114C271.749 112.159 271.423 112.233 271.12 112.335C270.821 112.434 270.578 112.583 270.393 112.784C270.211 112.981 270.12 113.25 270.12 113.591C270.12 114.057 270.292 114.409 270.637 114.648C270.986 114.883 271.427 115 271.961 115ZM278.204 116V107.273H279.499V108.591H279.59C279.749 108.159 280.037 107.809 280.454 107.54C280.871 107.271 281.34 107.136 281.863 107.136C281.961 107.136 282.085 107.138 282.232 107.142C282.38 107.146 282.492 107.152 282.567 107.159V108.523C282.522 108.511 282.418 108.494 282.255 108.472C282.096 108.445 281.927 108.432 281.749 108.432C281.325 108.432 280.946 108.521 280.613 108.699C280.283 108.873 280.022 109.116 279.829 109.426C279.639 109.733 279.545 110.083 279.545 110.477V116H278.204ZM284.134 116.091C283.854 116.091 283.613 115.991 283.413 115.79C283.212 115.589 283.112 115.348 283.112 115.068C283.112 114.788 283.212 114.547 283.413 114.347C283.613 114.146 283.854 114.045 284.134 114.045C284.415 114.045 284.655 114.146 284.856 114.347C285.057 114.547 285.157 114.788 285.157 115.068C285.157 115.254 285.11 115.424 285.015 115.58C284.924 115.735 284.801 115.86 284.646 115.955C284.494 116.045 284.324 116.091 284.134 116.091Z" fill="#495057"/>
</svg>
