<svg width="328" height="67" viewBox="0 0 328 67" fill="none" xmlns="http://www.w3.org/2000/svg">
<path d="M0 24C0 10.7452 10.7452 0 24 0H304C317.255 0 328 10.7452 328 24V43C328 56.2548 317.255 67 304 67H24C10.7452 67 0 56.2548 0 43V24Z" fill="#D8DFE8"/>
<path d="M109.961 39H106.37V27.3636H110.12C111.249 27.3636 112.215 27.5966 113.018 28.0625C113.821 28.5246 114.436 29.1894 114.864 30.0568C115.292 30.9205 115.506 31.9545 115.506 33.1591C115.506 34.3712 115.29 35.4148 114.859 36.2898C114.427 37.161 113.798 37.8314 112.972 38.3011C112.147 38.767 111.143 39 109.961 39ZM107.779 37.75H109.87C110.832 37.75 111.629 37.5644 112.262 37.1932C112.895 36.822 113.366 36.2936 113.677 35.608C113.987 34.9223 114.143 34.1061 114.143 33.1591C114.143 32.2197 113.989 31.411 113.683 30.733C113.376 30.0511 112.917 29.5284 112.308 29.1648C111.698 28.7973 110.938 28.6136 110.029 28.6136H107.779V37.75ZM121.347 39.1818C120.506 39.1818 119.781 38.9962 119.171 38.625C118.565 38.25 118.097 37.7273 117.768 37.0568C117.442 36.3826 117.279 35.5985 117.279 34.7045C117.279 33.8106 117.442 33.0227 117.768 32.3409C118.097 31.6553 118.556 31.1212 119.143 30.7386C119.734 30.3523 120.423 30.1591 121.211 30.1591C121.665 30.1591 122.114 30.2348 122.558 30.3864C123.001 30.5379 123.404 30.7841 123.768 31.125C124.131 31.4621 124.421 31.9091 124.637 32.4659C124.853 33.0227 124.961 33.7083 124.961 34.5227V35.0909H118.234V33.9318H123.597C123.597 33.4394 123.499 33 123.302 32.6136C123.109 32.2273 122.832 31.9223 122.472 31.6989C122.116 31.4754 121.696 31.3636 121.211 31.3636C120.677 31.3636 120.215 31.4962 119.825 31.7614C119.438 32.0227 119.141 32.3636 118.933 32.7841C118.724 33.2045 118.62 33.6553 118.62 34.1364V34.9091C118.62 35.5682 118.734 36.1269 118.961 36.5852C119.192 37.0398 119.512 37.3864 119.921 37.625C120.33 37.8598 120.806 37.9773 121.347 37.9773C121.7 37.9773 122.018 37.928 122.302 37.8295C122.59 37.7273 122.838 37.5758 123.046 37.375C123.254 37.1705 123.415 36.9167 123.529 36.6136L124.825 36.9773C124.688 37.4167 124.459 37.803 124.137 38.1364C123.815 38.4659 123.417 38.7235 122.944 38.9091C122.47 39.0909 121.938 39.1818 121.347 39.1818ZM133.183 32.2273L131.978 32.5682C131.902 32.3674 131.79 32.1723 131.643 31.983C131.499 31.7898 131.302 31.6307 131.052 31.5057C130.802 31.3807 130.482 31.3182 130.092 31.3182C129.558 31.3182 129.112 31.4413 128.756 31.6875C128.404 31.9299 128.228 32.2386 128.228 32.6136C128.228 32.947 128.349 33.2102 128.592 33.4034C128.834 33.5966 129.213 33.7576 129.728 33.8864L131.023 34.2045C131.804 34.3939 132.385 34.6837 132.768 35.0739C133.15 35.4602 133.342 35.9583 133.342 36.5682C133.342 37.0682 133.198 37.5152 132.91 37.9091C132.626 38.303 132.228 38.6136 131.717 38.8409C131.205 39.0682 130.611 39.1818 129.933 39.1818C129.042 39.1818 128.306 38.9886 127.722 38.6023C127.139 38.2159 126.77 37.6515 126.614 36.9091L127.887 36.5909C128.008 37.0606 128.237 37.4129 128.575 37.6477C128.915 37.8826 129.361 38 129.91 38C130.535 38 131.031 37.8674 131.398 37.6023C131.77 37.3333 131.955 37.0114 131.955 36.6364C131.955 36.3333 131.849 36.0795 131.637 35.875C131.425 35.6667 131.099 35.5114 130.66 35.4091L129.205 35.0682C128.406 34.8788 127.819 34.5852 127.444 34.1875C127.073 33.786 126.887 33.2841 126.887 32.6818C126.887 32.1894 127.025 31.7538 127.302 31.375C127.582 30.9962 127.963 30.6989 128.444 30.483C128.929 30.267 129.478 30.1591 130.092 30.1591C130.955 30.1591 131.633 30.3485 132.126 30.7273C132.622 31.1061 132.974 31.6061 133.183 32.2273ZM138.906 39.1818C138.087 39.1818 137.383 38.9886 136.792 38.6023C136.201 38.2159 135.746 37.6837 135.428 37.0057C135.11 36.3277 134.951 35.553 134.951 34.6818C134.951 33.7955 135.114 33.0133 135.44 32.3352C135.769 31.6534 136.228 31.1212 136.815 30.7386C137.406 30.3523 138.095 30.1591 138.883 30.1591C139.496 30.1591 140.049 30.2727 140.542 30.5C141.034 30.7273 141.438 31.0455 141.752 31.4545C142.067 31.8636 142.262 32.3409 142.337 32.8864H140.996C140.894 32.4886 140.667 32.1364 140.315 31.8295C139.966 31.5189 139.496 31.3636 138.906 31.3636C138.383 31.3636 137.924 31.5 137.531 31.7727C137.14 32.0417 136.835 32.4223 136.616 32.9148C136.4 33.4034 136.292 33.9773 136.292 34.6364C136.292 35.3106 136.398 35.8977 136.61 36.3977C136.826 36.8977 137.129 37.286 137.519 37.5625C137.913 37.839 138.375 37.9773 138.906 37.9773C139.254 37.9773 139.57 37.9167 139.854 37.7955C140.138 37.6742 140.379 37.5 140.576 37.2727C140.773 37.0455 140.913 36.7727 140.996 36.4545H142.337C142.262 36.9697 142.074 37.4337 141.775 37.8466C141.479 38.2557 141.087 38.5814 140.599 38.8239C140.114 39.0625 139.549 39.1818 138.906 39.1818ZM144.298 39V30.2727H145.593V31.5909H145.684C145.843 31.1591 146.131 30.8087 146.548 30.5398C146.964 30.2708 147.434 30.1364 147.957 30.1364C148.055 30.1364 148.178 30.1383 148.326 30.142C148.474 30.1458 148.585 30.1515 148.661 30.1591V31.5227C148.616 31.5114 148.512 31.4943 148.349 31.4716C148.19 31.4451 148.021 31.4318 147.843 31.4318C147.419 31.4318 147.04 31.5208 146.707 31.6989C146.377 31.8731 146.116 32.1155 145.923 32.4261C145.733 32.733 145.638 33.0833 145.638 33.4773V39H144.298ZM150.251 39V30.2727H151.592V39H150.251ZM150.933 28.8182C150.671 28.8182 150.446 28.7292 150.256 28.5511C150.071 28.3731 149.978 28.1591 149.978 27.9091C149.978 27.6591 150.071 27.4451 150.256 27.267C150.446 27.089 150.671 27 150.933 27C151.194 27 151.417 27.089 151.603 27.267C151.792 27.4451 151.887 27.6591 151.887 27.9091C151.887 28.1591 151.792 28.3731 151.603 28.5511C151.417 28.7292 151.194 28.8182 150.933 28.8182ZM154.048 42.2727V30.2727H155.343V31.6591H155.502C155.601 31.5076 155.737 31.3144 155.911 31.0795C156.089 30.8409 156.343 30.6288 156.673 30.4432C157.006 30.2538 157.457 30.1591 158.025 30.1591C158.76 30.1591 159.407 30.3428 159.968 30.7102C160.529 31.0777 160.966 31.5985 161.281 32.2727C161.595 32.947 161.752 33.7424 161.752 34.6591C161.752 35.5833 161.595 36.3845 161.281 37.0625C160.966 37.7367 160.531 38.2595 159.974 38.6307C159.417 38.9981 158.775 39.1818 158.048 39.1818C157.487 39.1818 157.038 39.089 156.701 38.9034C156.364 38.714 156.104 38.5 155.923 38.2614C155.741 38.0189 155.601 37.8182 155.502 37.6591H155.388V42.2727H154.048ZM155.366 34.6364C155.366 35.2955 155.462 35.8769 155.656 36.3807C155.849 36.8807 156.131 37.2727 156.502 37.5568C156.873 37.8371 157.328 37.9773 157.866 37.9773C158.426 37.9773 158.894 37.8295 159.269 37.5341C159.648 37.2348 159.932 36.8333 160.121 36.3295C160.315 35.822 160.411 35.2576 160.411 34.6364C160.411 34.0227 160.317 33.4697 160.127 32.9773C159.942 32.4811 159.659 32.089 159.281 31.8011C158.906 31.5095 158.434 31.3636 157.866 31.3636C157.32 31.3636 156.862 31.5019 156.491 31.7784C156.12 32.0511 155.839 32.4337 155.65 32.9261C155.46 33.4148 155.366 33.9848 155.366 34.6364ZM167.593 30.2727V31.4091H163.07V30.2727H167.593ZM164.388 28.1818H165.729V36.5C165.729 36.8788 165.784 37.1629 165.894 37.3523C166.008 37.5379 166.152 37.6629 166.326 37.7273C166.504 37.7879 166.692 37.8182 166.888 37.8182C167.036 37.8182 167.157 37.8106 167.252 37.7955C167.347 37.7765 167.423 37.7614 167.479 37.75L167.752 38.9545C167.661 38.9886 167.534 39.0227 167.371 39.0568C167.209 39.0947 167.002 39.1136 166.752 39.1136C166.373 39.1136 166.002 39.0322 165.638 38.8693C165.279 38.7064 164.979 38.4583 164.741 38.125C164.506 37.7917 164.388 37.3712 164.388 36.8636V28.1818ZM173.062 39.1818C172.274 39.1818 171.583 38.9943 170.988 38.6193C170.397 38.2443 169.935 37.7197 169.602 37.0455C169.272 36.3712 169.107 35.5833 169.107 34.6818C169.107 33.7727 169.272 32.9792 169.602 32.3011C169.935 31.6231 170.397 31.0966 170.988 30.7216C171.583 30.3466 172.274 30.1591 173.062 30.1591C173.85 30.1591 174.539 30.3466 175.13 30.7216C175.725 31.0966 176.187 31.6231 176.516 32.3011C176.85 32.9792 177.016 33.7727 177.016 34.6818C177.016 35.5833 176.85 36.3712 176.516 37.0455C176.187 37.7197 175.725 38.2443 175.13 38.6193C174.539 38.9943 173.85 39.1818 173.062 39.1818ZM173.062 37.9773C173.66 37.9773 174.153 37.8239 174.539 37.517C174.925 37.2102 175.211 36.8068 175.397 36.3068C175.583 35.8068 175.675 35.2652 175.675 34.6818C175.675 34.0985 175.583 33.5549 175.397 33.0511C175.211 32.5473 174.925 32.1402 174.539 31.8295C174.153 31.5189 173.66 31.3636 173.062 31.3636C172.463 31.3636 171.971 31.5189 171.585 31.8295C171.198 32.1402 170.912 32.5473 170.727 33.0511C170.541 33.5549 170.448 34.0985 170.448 34.6818C170.448 35.2652 170.541 35.8068 170.727 36.3068C170.912 36.8068 171.198 37.2102 171.585 37.517C171.971 37.8239 172.463 37.9773 173.062 37.9773ZM182.586 42.4545C181.938 42.4545 181.381 42.3712 180.915 42.2045C180.45 42.0417 180.061 41.8258 179.751 41.5568C179.444 41.2917 179.2 41.0076 179.018 40.7045L180.086 39.9545C180.207 40.1136 180.361 40.2955 180.546 40.5C180.732 40.7083 180.986 40.8883 181.308 41.0398C181.633 41.1951 182.059 41.2727 182.586 41.2727C183.29 41.2727 183.872 41.1023 184.33 40.7614C184.789 40.4205 185.018 39.8864 185.018 39.1591V37.3864H184.904C184.806 37.5455 184.665 37.7424 184.484 37.9773C184.306 38.2083 184.048 38.4148 183.711 38.5966C183.378 38.7746 182.927 38.8636 182.359 38.8636C181.654 38.8636 181.022 38.697 180.461 38.3636C179.904 38.0303 179.463 37.5455 179.137 36.9091C178.815 36.2727 178.654 35.5 178.654 34.5909C178.654 33.697 178.811 32.9186 179.126 32.2557C179.44 31.589 179.878 31.0739 180.438 30.7102C180.999 30.3428 181.647 30.1591 182.381 30.1591C182.95 30.1591 183.4 30.2538 183.734 30.4432C184.071 30.6288 184.328 30.8409 184.506 31.0795C184.688 31.3144 184.828 31.5076 184.927 31.6591H185.063V30.2727H186.359V39.25C186.359 40 186.188 40.6098 185.847 41.0795C185.51 41.553 185.056 41.8996 184.484 42.1193C183.915 42.3428 183.283 42.4545 182.586 42.4545ZM182.54 37.6591C183.078 37.6591 183.533 37.536 183.904 37.2898C184.275 37.0436 184.558 36.6894 184.751 36.2273C184.944 35.7652 185.04 35.2121 185.04 34.5682C185.04 33.9394 184.946 33.3845 184.756 32.9034C184.567 32.4223 184.287 32.0455 183.915 31.7727C183.544 31.5 183.086 31.3636 182.54 31.3636C181.972 31.3636 181.499 31.5076 181.12 31.7955C180.745 32.0833 180.463 32.4697 180.273 32.9545C180.088 33.4394 179.995 33.9773 179.995 34.5682C179.995 35.1742 180.09 35.7102 180.279 36.1761C180.472 36.6383 180.756 37.0019 181.131 37.267C181.51 37.5284 181.98 37.6591 182.54 37.6591ZM188.813 39V30.2727H190.109V31.5909H190.2C190.359 31.1591 190.647 30.8087 191.063 30.5398C191.48 30.2708 191.95 30.1364 192.472 30.1364C192.571 30.1364 192.694 30.1383 192.842 30.142C192.989 30.1458 193.101 30.1515 193.177 30.1591V31.5227C193.131 31.5114 193.027 31.4943 192.864 31.4716C192.705 31.4451 192.537 31.4318 192.359 31.4318C191.934 31.4318 191.556 31.5208 191.222 31.6989C190.893 31.8731 190.631 32.1155 190.438 32.4261C190.249 32.733 190.154 33.0833 190.154 33.4773V39H188.813ZM197.335 39.2045C196.781 39.2045 196.28 39.1004 195.829 38.892C195.378 38.6799 195.02 38.375 194.755 37.9773C194.49 37.5758 194.357 37.0909 194.357 36.5227C194.357 36.0227 194.456 35.6174 194.653 35.3068C194.85 34.9924 195.113 34.7462 195.442 34.5682C195.772 34.3902 196.136 34.2576 196.533 34.1705C196.935 34.0795 197.338 34.0076 197.744 33.9545C198.274 33.8864 198.704 33.8352 199.033 33.8011C199.367 33.7633 199.609 33.7008 199.761 33.6136C199.916 33.5265 199.994 33.375 199.994 33.1591V33.1136C199.994 32.553 199.84 32.1174 199.533 31.8068C199.23 31.4962 198.77 31.3409 198.153 31.3409C197.513 31.3409 197.011 31.4811 196.647 31.7614C196.283 32.0417 196.028 32.3409 195.88 32.6591L194.607 32.2045C194.835 31.6742 195.138 31.2614 195.516 30.9659C195.899 30.6667 196.316 30.4583 196.766 30.3409C197.221 30.2197 197.668 30.1591 198.107 30.1591C198.388 30.1591 198.71 30.1932 199.073 30.2614C199.441 30.3258 199.795 30.4602 200.136 30.6648C200.48 30.8693 200.766 31.178 200.994 31.5909C201.221 32.0038 201.335 32.5568 201.335 33.25V39H199.994V37.8182H199.925C199.835 38.0076 199.683 38.2102 199.471 38.4261C199.259 38.642 198.977 38.8258 198.624 38.9773C198.272 39.1288 197.842 39.2045 197.335 39.2045ZM197.539 38C198.069 38 198.516 37.8958 198.88 37.6875C199.247 37.4792 199.524 37.2102 199.71 36.8807C199.899 36.5511 199.994 36.2045 199.994 35.8409V34.6136C199.937 34.6818 199.812 34.7443 199.619 34.8011C199.429 34.8542 199.21 34.9015 198.96 34.9432C198.713 34.9811 198.473 35.0152 198.238 35.0455C198.007 35.072 197.819 35.0947 197.675 35.1136C197.327 35.1591 197.001 35.233 196.698 35.3352C196.399 35.4337 196.156 35.5833 195.971 35.7841C195.789 35.9811 195.698 36.25 195.698 36.5909C195.698 37.0568 195.871 37.4091 196.215 37.6477C196.564 37.8826 197.005 38 197.539 38ZM207.668 30.2727V31.4091H202.964V30.2727H207.668ZM204.373 39V29.0682C204.373 28.5682 204.49 28.1515 204.725 27.8182C204.96 27.4848 205.265 27.2348 205.64 27.0682C206.015 26.9015 206.411 26.8182 206.827 26.8182C207.157 26.8182 207.426 26.8447 207.634 26.8977C207.843 26.9508 207.998 27 208.1 27.0455L207.714 28.2045C207.646 28.1818 207.551 28.1534 207.43 28.1193C207.312 28.0852 207.157 28.0682 206.964 28.0682C206.521 28.0682 206.201 28.1799 206.004 28.4034C205.81 28.6269 205.714 28.9545 205.714 29.3864V39H204.373ZM211.866 39.2045C211.313 39.2045 210.811 39.1004 210.36 38.892C209.909 38.6799 209.551 38.375 209.286 37.9773C209.021 37.5758 208.888 37.0909 208.888 36.5227C208.888 36.0227 208.987 35.6174 209.184 35.3068C209.381 34.9924 209.644 34.7462 209.974 34.5682C210.303 34.3902 210.667 34.2576 211.065 34.1705C211.466 34.0795 211.87 34.0076 212.275 33.9545C212.805 33.8864 213.235 33.8352 213.565 33.8011C213.898 33.7633 214.14 33.7008 214.292 33.6136C214.447 33.5265 214.525 33.375 214.525 33.1591V33.1136C214.525 32.553 214.371 32.1174 214.065 31.8068C213.762 31.4962 213.301 31.3409 212.684 31.3409C212.044 31.3409 211.542 31.4811 211.178 31.7614C210.815 32.0417 210.559 32.3409 210.411 32.6591L209.138 32.2045C209.366 31.6742 209.669 31.2614 210.048 30.9659C210.43 30.6667 210.847 30.4583 211.298 30.3409C211.752 30.2197 212.199 30.1591 212.638 30.1591C212.919 30.1591 213.241 30.1932 213.604 30.2614C213.972 30.3258 214.326 30.4602 214.667 30.6648C215.012 30.8693 215.298 31.178 215.525 31.5909C215.752 32.0038 215.866 32.5568 215.866 33.25V39H214.525V37.8182H214.457C214.366 38.0076 214.214 38.2102 214.002 38.4261C213.79 38.642 213.508 38.8258 213.156 38.9773C212.803 39.1288 212.373 39.2045 211.866 39.2045ZM212.07 38C212.601 38 213.048 37.8958 213.411 37.6875C213.779 37.4792 214.055 37.2102 214.241 36.8807C214.43 36.5511 214.525 36.2045 214.525 35.8409V34.6136C214.468 34.6818 214.343 34.7443 214.15 34.8011C213.96 34.8542 213.741 34.9015 213.491 34.9432C213.245 34.9811 213.004 35.0152 212.769 35.0455C212.538 35.072 212.351 35.0947 212.207 35.1136C211.858 35.1591 211.532 35.233 211.229 35.3352C210.93 35.4337 210.688 35.5833 210.502 35.7841C210.32 35.9811 210.229 36.25 210.229 36.5909C210.229 37.0568 210.402 37.4091 210.746 37.6477C211.095 37.8826 211.536 38 212.07 38ZM218.313 39V30.2727H219.609V31.5909H219.7C219.859 31.1591 220.147 30.8087 220.563 30.5398C220.98 30.2708 221.45 30.1364 221.972 30.1364C222.071 30.1364 222.194 30.1383 222.342 30.142C222.489 30.1458 222.601 30.1515 222.677 30.1591V31.5227C222.631 31.5114 222.527 31.4943 222.364 31.4716C222.205 31.4451 222.037 31.4318 221.859 31.4318C221.434 31.4318 221.056 31.5208 220.722 31.6989C220.393 31.8731 220.131 32.1155 219.938 32.4261C219.749 32.733 219.654 33.0833 219.654 33.4773V39H218.313Z" fill="#0A3871"/>
<path d="M24 1H304V-1H24V1ZM327 24V43H329V24H327ZM304 66H24V68H304V66ZM1 43V24H-1V43H1ZM24 66C11.2974 66 1 55.7025 1 43H-1C-1 56.8071 10.1929 68 24 68V66ZM327 43C327 55.7025 316.703 66 304 66V68C317.807 68 329 56.8071 329 43H327ZM304 1C316.703 1 327 11.2975 327 24H329C329 10.1929 317.807 -1 304 -1V1ZM24 -1C10.1929 -1 -1 10.1929 -1 24H1C1 11.2975 11.2975 1 24 1V-1Z" fill="#0A3871"/>
</svg>
