<svg width="328" height="67" viewBox="0 0 328 67" fill="none" xmlns="http://www.w3.org/2000/svg">
<path d="M0 24C0 10.7452 10.7452 0 24 0H304C317.255 0 328 10.7452 328 24V43C328 56.2548 317.255 67 304 67H24C10.7452 67 0 56.2548 0 43V24Z" fill="#0A3871"/>
<path d="M128.968 31H127.559C127.476 30.5947 127.33 30.2386 127.121 29.9318C126.917 29.625 126.667 29.3674 126.371 29.1591C126.08 28.947 125.756 28.7879 125.4 28.6818C125.044 28.5758 124.673 28.5227 124.286 28.5227C123.582 28.5227 122.943 28.7008 122.371 29.0568C121.803 29.4129 121.351 29.9375 121.013 30.6307C120.68 31.3239 120.513 32.1742 120.513 33.1818C120.513 34.1894 120.68 35.0398 121.013 35.733C121.351 36.4261 121.803 36.9508 122.371 37.3068C122.943 37.6629 123.582 37.8409 124.286 37.8409C124.673 37.8409 125.044 37.7879 125.4 37.6818C125.756 37.5758 126.08 37.4186 126.371 37.2102C126.667 36.9981 126.917 36.7386 127.121 36.4318C127.33 36.1212 127.476 35.7652 127.559 35.3636H128.968C128.862 35.9583 128.669 36.4905 128.388 36.9602C128.108 37.4299 127.76 37.8295 127.343 38.1591C126.926 38.4848 126.459 38.733 125.94 38.9034C125.424 39.0739 124.873 39.1591 124.286 39.1591C123.294 39.1591 122.411 38.9167 121.638 38.4318C120.866 37.947 120.258 37.2576 119.815 36.3636C119.371 35.4697 119.15 34.4091 119.15 33.1818C119.15 31.9545 119.371 30.8939 119.815 30C120.258 29.1061 120.866 28.4167 121.638 27.9318C122.411 27.447 123.294 27.2045 124.286 27.2045C124.873 27.2045 125.424 27.2898 125.94 27.4602C126.459 27.6307 126.926 27.8807 127.343 28.2102C127.76 28.536 128.108 28.9337 128.388 29.4034C128.669 29.8693 128.862 30.4015 128.968 31ZM131.063 39V30.2727H132.359V31.5909H132.45C132.609 31.1591 132.897 30.8087 133.313 30.5398C133.73 30.2708 134.2 30.1364 134.722 30.1364C134.821 30.1364 134.944 30.1383 135.092 30.142C135.239 30.1458 135.351 30.1515 135.427 30.1591V31.5227C135.381 31.5114 135.277 31.4943 135.114 31.4716C134.955 31.4451 134.787 31.4318 134.609 31.4318C134.184 31.4318 133.806 31.5208 133.472 31.6989C133.143 31.8731 132.881 32.1155 132.688 32.4261C132.499 32.733 132.404 33.0833 132.404 33.4773V39H131.063ZM137.016 39V30.2727H138.357V39H137.016ZM137.698 28.8182C137.437 28.8182 137.211 28.7292 137.022 28.5511C136.836 28.3731 136.744 28.1591 136.744 27.9091C136.744 27.6591 136.836 27.4451 137.022 27.267C137.211 27.089 137.437 27 137.698 27C137.96 27 138.183 27.089 138.369 27.267C138.558 27.4451 138.653 27.6591 138.653 27.9091C138.653 28.1591 138.558 28.3731 138.369 28.5511C138.183 28.7292 137.96 28.8182 137.698 28.8182ZM140.813 42.2727V30.2727H142.109V31.6591H142.268C142.366 31.5076 142.503 31.3144 142.677 31.0795C142.855 30.8409 143.109 30.6288 143.438 30.4432C143.772 30.2538 144.222 30.1591 144.79 30.1591C145.525 30.1591 146.173 30.3428 146.734 30.7102C147.294 31.0777 147.732 31.5985 148.046 32.2727C148.361 32.947 148.518 33.7424 148.518 34.6591C148.518 35.5833 148.361 36.3845 148.046 37.0625C147.732 37.7367 147.296 38.2595 146.739 38.6307C146.183 38.9981 145.54 39.1818 144.813 39.1818C144.253 39.1818 143.804 39.089 143.467 38.9034C143.129 38.714 142.87 38.5 142.688 38.2614C142.506 38.0189 142.366 37.8182 142.268 37.6591H142.154V42.2727H140.813ZM142.131 34.6364C142.131 35.2955 142.228 35.8769 142.421 36.3807C142.614 36.8807 142.897 37.2727 143.268 37.5568C143.639 37.8371 144.094 37.9773 144.631 37.9773C145.192 37.9773 145.66 37.8295 146.035 37.5341C146.414 37.2348 146.698 36.8333 146.887 36.3295C147.08 35.822 147.177 35.2576 147.177 34.6364C147.177 34.0227 147.082 33.4697 146.893 32.9773C146.707 32.4811 146.425 32.089 146.046 31.8011C145.671 31.5095 145.2 31.3636 144.631 31.3636C144.086 31.3636 143.628 31.5019 143.256 31.7784C142.885 32.0511 142.605 32.4337 142.415 32.9261C142.226 33.4148 142.131 33.9848 142.131 34.6364ZM154.359 30.2727V31.4091H149.836V30.2727H154.359ZM151.154 28.1818H152.495V36.5C152.495 36.8788 152.55 37.1629 152.66 37.3523C152.773 37.5379 152.917 37.6629 153.092 37.7273C153.27 37.7879 153.457 37.8182 153.654 37.8182C153.802 37.8182 153.923 37.8106 154.018 37.7955C154.112 37.7765 154.188 37.7614 154.245 37.75L154.518 38.9545C154.427 38.9886 154.3 39.0227 154.137 39.0568C153.974 39.0947 153.768 39.1136 153.518 39.1136C153.139 39.1136 152.768 39.0322 152.404 38.8693C152.044 38.7064 151.745 38.4583 151.506 38.125C151.272 37.7917 151.154 37.3712 151.154 36.8636V28.1818ZM159.827 39.1818C159.04 39.1818 158.348 38.9943 157.754 38.6193C157.163 38.2443 156.701 37.7197 156.367 37.0455C156.038 36.3712 155.873 35.5833 155.873 34.6818C155.873 33.7727 156.038 32.9792 156.367 32.3011C156.701 31.6231 157.163 31.0966 157.754 30.7216C158.348 30.3466 159.04 30.1591 159.827 30.1591C160.615 30.1591 161.305 30.3466 161.896 30.7216C162.49 31.0966 162.952 31.6231 163.282 32.3011C163.615 32.9792 163.782 33.7727 163.782 34.6818C163.782 35.5833 163.615 36.3712 163.282 37.0455C162.952 37.7197 162.49 38.2443 161.896 38.6193C161.305 38.9943 160.615 39.1818 159.827 39.1818ZM159.827 37.9773C160.426 37.9773 160.918 37.8239 161.305 37.517C161.691 37.2102 161.977 36.8068 162.163 36.3068C162.348 35.8068 162.441 35.2652 162.441 34.6818C162.441 34.0985 162.348 33.5549 162.163 33.0511C161.977 32.5473 161.691 32.1402 161.305 31.8295C160.918 31.5189 160.426 31.3636 159.827 31.3636C159.229 31.3636 158.737 31.5189 158.35 31.8295C157.964 32.1402 157.678 32.5473 157.492 33.0511C157.307 33.5549 157.214 34.0985 157.214 34.6818C157.214 35.2652 157.307 35.8068 157.492 36.3068C157.678 36.8068 157.964 37.2102 158.35 37.517C158.737 37.8239 159.229 37.9773 159.827 37.9773ZM169.352 42.4545C168.704 42.4545 168.147 42.3712 167.681 42.2045C167.215 42.0417 166.827 41.8258 166.516 41.5568C166.21 41.2917 165.965 41.0076 165.783 40.7045L166.852 39.9545C166.973 40.1136 167.126 40.2955 167.312 40.5C167.497 40.7083 167.751 40.8883 168.073 41.0398C168.399 41.1951 168.825 41.2727 169.352 41.2727C170.056 41.2727 170.638 41.1023 171.096 40.7614C171.554 40.4205 171.783 39.8864 171.783 39.1591V37.3864H171.67C171.571 37.5455 171.431 37.7424 171.249 37.9773C171.071 38.2083 170.814 38.4148 170.477 38.5966C170.143 38.7746 169.692 38.8636 169.124 38.8636C168.42 38.8636 167.787 38.697 167.227 38.3636C166.67 38.0303 166.228 37.5455 165.903 36.9091C165.581 36.2727 165.42 35.5 165.42 34.5909C165.42 33.697 165.577 32.9186 165.891 32.2557C166.206 31.589 166.643 31.0739 167.204 30.7102C167.764 30.3428 168.412 30.1591 169.147 30.1591C169.715 30.1591 170.166 30.2538 170.499 30.4432C170.836 30.6288 171.094 30.8409 171.272 31.0795C171.454 31.3144 171.594 31.5076 171.692 31.6591H171.829V30.2727H173.124V39.25C173.124 40 172.954 40.6098 172.613 41.0795C172.276 41.553 171.821 41.8996 171.249 42.1193C170.681 42.3428 170.049 42.4545 169.352 42.4545ZM169.306 37.6591C169.844 37.6591 170.299 37.536 170.67 37.2898C171.041 37.0436 171.323 36.6894 171.516 36.2273C171.71 35.7652 171.806 35.2121 171.806 34.5682C171.806 33.9394 171.711 33.3845 171.522 32.9034C171.333 32.4223 171.052 32.0455 170.681 31.7727C170.31 31.5 169.852 31.3636 169.306 31.3636C168.738 31.3636 168.264 31.5076 167.886 31.7955C167.511 32.0833 167.228 32.4697 167.039 32.9545C166.853 33.4394 166.761 33.9773 166.761 34.5682C166.761 35.1742 166.855 35.7102 167.045 36.1761C167.238 36.6383 167.522 37.0019 167.897 37.267C168.276 37.5284 168.746 37.6591 169.306 37.6591ZM175.579 39V30.2727H176.874V31.5909H176.965C177.124 31.1591 177.412 30.8087 177.829 30.5398C178.246 30.2708 178.715 30.1364 179.238 30.1364C179.336 30.1364 179.46 30.1383 179.607 30.142C179.755 30.1458 179.867 30.1515 179.942 30.1591V31.5227C179.897 31.5114 179.793 31.4943 179.63 31.4716C179.471 31.4451 179.302 31.4318 179.124 31.4318C178.7 31.4318 178.321 31.5208 177.988 31.6989C177.658 31.8731 177.397 32.1155 177.204 32.4261C177.014 32.733 176.92 33.0833 176.92 33.4773V39H175.579ZM184.1 39.2045C183.547 39.2045 183.045 39.1004 182.594 38.892C182.144 38.6799 181.786 38.375 181.521 37.9773C181.255 37.5758 181.123 37.0909 181.123 36.5227C181.123 36.0227 181.221 35.6174 181.418 35.3068C181.615 34.9924 181.879 34.7462 182.208 34.5682C182.538 34.3902 182.901 34.2576 183.299 34.1705C183.701 34.0795 184.104 34.0076 184.509 33.9545C185.04 33.8864 185.469 33.8352 185.799 33.8011C186.132 33.7633 186.375 33.7008 186.526 33.6136C186.682 33.5265 186.759 33.375 186.759 33.1591V33.1136C186.759 32.553 186.606 32.1174 186.299 31.8068C185.996 31.4962 185.536 31.3409 184.918 31.3409C184.278 31.3409 183.776 31.4811 183.413 31.7614C183.049 32.0417 182.793 32.3409 182.646 32.6591L181.373 32.2045C181.6 31.6742 181.903 31.2614 182.282 30.9659C182.665 30.6667 183.081 30.4583 183.532 30.3409C183.987 30.2197 184.433 30.1591 184.873 30.1591C185.153 30.1591 185.475 30.1932 185.839 30.2614C186.206 30.3258 186.56 30.4602 186.901 30.6648C187.246 30.8693 187.532 31.178 187.759 31.5909C187.987 32.0038 188.1 32.5568 188.1 33.25V39H186.759V37.8182H186.691C186.6 38.0076 186.449 38.2102 186.237 38.4261C186.024 38.642 185.742 38.8258 185.39 38.9773C185.038 39.1288 184.608 39.2045 184.1 39.2045ZM184.305 38C184.835 38 185.282 37.8958 185.646 37.6875C186.013 37.4792 186.29 37.2102 186.475 36.8807C186.665 36.5511 186.759 36.2045 186.759 35.8409V34.6136C186.702 34.6818 186.577 34.7443 186.384 34.8011C186.195 34.8542 185.975 34.9015 185.725 34.9432C185.479 34.9811 185.238 35.0152 185.004 35.0455C184.772 35.072 184.585 35.0947 184.441 35.1136C184.093 35.1591 183.767 35.233 183.464 35.3352C183.165 35.4337 182.922 35.5833 182.737 35.7841C182.555 35.9811 182.464 36.25 182.464 36.5909C182.464 37.0568 182.636 37.4091 182.981 37.6477C183.329 37.8826 183.771 38 184.305 38ZM194.434 30.2727V31.4091H189.729V30.2727H194.434ZM191.138 39V29.0682C191.138 28.5682 191.256 28.1515 191.491 27.8182C191.726 27.4848 192.031 27.2348 192.406 27.0682C192.781 26.9015 193.176 26.8182 193.593 26.8182C193.923 26.8182 194.192 26.8447 194.4 26.8977C194.608 26.9508 194.763 27 194.866 27.0455L194.479 28.2045C194.411 28.1818 194.317 28.1534 194.195 28.1193C194.078 28.0852 193.923 28.0682 193.729 28.0682C193.286 28.0682 192.966 28.1799 192.769 28.4034C192.576 28.6269 192.479 28.9545 192.479 29.3864V39H191.138ZM198.631 39.2045C198.078 39.2045 197.576 39.1004 197.126 38.892C196.675 38.6799 196.317 38.375 196.052 37.9773C195.787 37.5758 195.654 37.0909 195.654 36.5227C195.654 36.0227 195.753 35.6174 195.95 35.3068C196.147 34.9924 196.41 34.7462 196.739 34.5682C197.069 34.3902 197.433 34.2576 197.83 34.1705C198.232 34.0795 198.635 34.0076 199.04 33.9545C199.571 33.8864 200.001 33.8352 200.33 33.8011C200.664 33.7633 200.906 33.7008 201.058 33.6136C201.213 33.5265 201.29 33.375 201.29 33.1591V33.1136C201.29 32.553 201.137 32.1174 200.83 31.8068C200.527 31.4962 200.067 31.3409 199.45 31.3409C198.809 31.3409 198.308 31.4811 197.944 31.7614C197.58 32.0417 197.325 32.3409 197.177 32.6591L195.904 32.2045C196.131 31.6742 196.434 31.2614 196.813 30.9659C197.196 30.6667 197.612 30.4583 198.063 30.3409C198.518 30.2197 198.965 30.1591 199.404 30.1591C199.684 30.1591 200.006 30.1932 200.37 30.2614C200.737 30.3258 201.092 30.4602 201.433 30.6648C201.777 30.8693 202.063 31.178 202.29 31.5909C202.518 32.0038 202.631 32.5568 202.631 33.25V39H201.29V37.8182H201.222C201.131 38.0076 200.98 38.2102 200.768 38.4261C200.556 38.642 200.273 38.8258 199.921 38.9773C199.569 39.1288 199.139 39.2045 198.631 39.2045ZM198.836 38C199.366 38 199.813 37.8958 200.177 37.6875C200.544 37.4792 200.821 37.2102 201.006 36.8807C201.196 36.5511 201.29 36.2045 201.29 35.8409V34.6136C201.234 34.6818 201.109 34.7443 200.915 34.8011C200.726 34.8542 200.506 34.9015 200.256 34.9432C200.01 34.9811 199.77 35.0152 199.535 35.0455C199.304 35.072 199.116 35.0947 198.972 35.1136C198.624 35.1591 198.298 35.233 197.995 35.3352C197.696 35.4337 197.453 35.5833 197.268 35.7841C197.086 35.9811 196.995 36.25 196.995 36.5909C196.995 37.0568 197.167 37.4091 197.512 37.6477C197.861 37.8826 198.302 38 198.836 38ZM205.079 39V30.2727H206.374V31.5909H206.465C206.624 31.1591 206.912 30.8087 207.329 30.5398C207.746 30.2708 208.215 30.1364 208.738 30.1364C208.836 30.1364 208.96 30.1383 209.107 30.142C209.255 30.1458 209.367 30.1515 209.442 30.1591V31.5227C209.397 31.5114 209.293 31.4943 209.13 31.4716C208.971 31.4451 208.802 31.4318 208.624 31.4318C208.2 31.4318 207.821 31.5208 207.488 31.6989C207.158 31.8731 206.897 32.1155 206.704 32.4261C206.514 32.733 206.42 33.0833 206.42 33.4773V39H205.079Z" fill="white"/>
</svg>
